<svg width="648" height="243" viewBox="0 0 648 243" fill="none" xmlns="http://www.w3.org/2000/svg">
<mask id="path-1-outside-1_2_118" maskUnits="userSpaceOnUse" x="0" y="0" width="648" height="100" fill="black">
<rect fill="white" width="648" height="100"/>
<path d="M0 2H648V98H0V2Z"/>
</mask>
<path d="M0 4H648V0H0V4ZM648 96H0V100H648V96Z" fill="#333333" mask="url(#path-1-outside-1_2_118)"/>
<path d="M45.008 44.192C44.112 44.192 43.2533 44.0747 42.432 43.84C41.6107 43.5947 40.9493 43.28 40.448 42.896L41.328 40.944C41.808 41.2853 42.3733 41.568 43.024 41.792C43.6853 42.0053 44.352 42.112 45.024 42.112C45.536 42.112 45.9467 42.064 46.256 41.968C46.576 41.8613 46.8107 41.7173 46.96 41.536C47.1093 41.3547 47.184 41.1467 47.184 40.912C47.184 40.6133 47.0667 40.3787 46.832 40.208C46.5973 40.0267 46.288 39.8827 45.904 39.776C45.52 39.6587 45.0933 39.552 44.624 39.456C44.1653 39.3493 43.7013 39.2213 43.232 39.072C42.7733 38.9227 42.352 38.7307 41.968 38.496C41.584 38.2613 41.2693 37.952 41.024 37.568C40.7893 37.184 40.672 36.6933 40.672 36.096C40.672 35.456 40.8427 34.8747 41.184 34.352C41.536 33.8187 42.0587 33.3973 42.752 33.088C43.456 32.768 44.336 32.608 45.392 32.608C46.096 32.608 46.7893 32.6933 47.472 32.864C48.1547 33.024 48.7573 33.2693 49.28 33.6L48.48 35.568C47.9573 35.2693 47.4347 35.0507 46.912 34.912C46.3893 34.7627 45.8773 34.688 45.376 34.688C44.8747 34.688 44.464 34.7467 44.144 34.864C43.824 34.9813 43.5947 35.136 43.456 35.328C43.3173 35.5093 43.248 35.7227 43.248 35.968C43.248 36.256 43.3653 36.4907 43.6 36.672C43.8347 36.8427 44.144 36.9813 44.528 37.088C44.912 37.1947 45.3333 37.3013 45.792 37.408C46.2613 37.5147 46.7253 37.6373 47.184 37.776C47.6533 37.9147 48.08 38.1013 48.464 38.336C48.848 38.5707 49.1573 38.88 49.392 39.264C49.6373 39.648 49.76 40.1333 49.76 40.72C49.76 41.3493 49.584 41.9253 49.232 42.448C48.88 42.9707 48.352 43.392 47.648 43.712C46.9547 44.032 46.0747 44.192 45.008 44.192ZM56.6351 44V42.32L56.4751 41.952V38.944C56.4751 38.4107 56.3098 37.9947 55.9791 37.696C55.6591 37.3973 55.1631 37.248 54.4911 37.248C54.0325 37.248 53.5791 37.3227 53.1311 37.472C52.6938 37.6107 52.3205 37.8027 52.0111 38.048L51.1151 36.304C51.5845 35.9733 52.1498 35.7173 52.8111 35.536C53.4725 35.3547 54.1445 35.264 54.8271 35.264C56.1391 35.264 57.1578 35.5733 57.8831 36.192C58.6085 36.8107 58.9711 37.776 58.9711 39.088V44H56.6351ZM54.0111 44.128C53.3391 44.128 52.7631 44.016 52.2831 43.792C51.8031 43.5573 51.4351 43.2427 51.1791 42.848C50.9231 42.4533 50.7951 42.0107 50.7951 41.52C50.7951 41.008 50.9178 40.56 51.1631 40.176C51.4191 39.792 51.8191 39.4933 52.3631 39.28C52.9071 39.056 53.6165 38.944 54.4911 38.944H56.7791V40.4H54.7631C54.1765 40.4 53.7711 40.496 53.5471 40.688C53.3338 40.88 53.2271 41.12 53.2271 41.408C53.2271 41.728 53.3498 41.984 53.5951 42.176C53.8511 42.3573 54.1978 42.448 54.6351 42.448C55.0511 42.448 55.4245 42.352 55.7551 42.16C56.0858 41.9573 56.3258 41.664 56.4751 41.28L56.8591 42.432C56.6778 42.9867 56.3471 43.408 55.8671 43.696C55.3871 43.984 54.7685 44.128 54.0111 44.128ZM66.4621 35.264C67.1448 35.264 67.7528 35.4027 68.2861 35.68C68.8301 35.9467 69.2568 36.3627 69.5661 36.928C69.8755 37.4827 70.0301 38.1973 70.0301 39.072V44H67.5341V39.456C67.5341 38.7627 67.3795 38.2507 67.0701 37.92C66.7715 37.5893 66.3448 37.424 65.7901 37.424C65.3955 37.424 65.0381 37.5093 64.7181 37.68C64.4088 37.84 64.1635 38.0907 63.9821 38.432C63.8115 38.7733 63.7261 39.2107 63.7261 39.744V44H61.2301V35.392H63.6141V37.776L63.1661 37.056C63.4755 36.48 63.9181 36.0373 64.4941 35.728C65.0701 35.4187 65.7261 35.264 66.4621 35.264ZM76.0511 44.128C75.2405 44.128 74.5098 43.9467 73.8591 43.584C73.2085 43.2107 72.6911 42.6933 72.3071 42.032C71.9338 41.3707 71.7471 40.592 71.7471 39.696C71.7471 38.7893 71.9338 38.0053 72.3071 37.344C72.6911 36.6827 73.2085 36.1707 73.8591 35.808C74.5098 35.4453 75.2405 35.264 76.0511 35.264C76.7765 35.264 77.4111 35.424 77.9551 35.744C78.4991 36.064 78.9205 36.5493 79.2191 37.2C79.5178 37.8507 79.6671 38.6827 79.6671 39.696C79.6671 40.6987 79.5231 41.5307 79.2351 42.192C78.9471 42.8427 78.5311 43.328 77.9871 43.648C77.4538 43.968 76.8085 44.128 76.0511 44.128ZM76.4831 42.08C76.8885 42.08 77.2565 41.984 77.5871 41.792C77.9178 41.6 78.1791 41.328 78.3711 40.976C78.5738 40.6133 78.6751 40.1867 78.6751 39.696C78.6751 39.1947 78.5738 38.768 78.3711 38.416C78.1791 38.064 77.9178 37.792 77.5871 37.6C77.2565 37.408 76.8885 37.312 76.4831 37.312C76.0671 37.312 75.6938 37.408 75.3631 37.6C75.0325 37.792 74.7658 38.064 74.5631 38.416C74.3711 38.768 74.2751 39.1947 74.2751 39.696C74.2751 40.1867 74.3711 40.6133 74.5631 40.976C74.7658 41.328 75.0325 41.6 75.3631 41.792C75.6938 41.984 76.0671 42.08 76.4831 42.08ZM78.7391 44V42.24L78.7871 39.68L78.6271 37.136V32.128H81.1231V44H78.7391ZM87.7053 44.128C86.7239 44.128 85.8599 43.936 85.1133 43.552C84.3773 43.168 83.8066 42.6453 83.4013 41.984C82.9959 41.312 82.7933 40.5493 82.7933 39.696C82.7933 38.832 82.9906 38.0693 83.3853 37.408C83.7906 36.736 84.3399 36.2133 85.0333 35.84C85.7266 35.456 86.5106 35.264 87.3853 35.264C88.2279 35.264 88.9853 35.4453 89.6573 35.808C90.3399 36.16 90.8786 36.672 91.2733 37.344C91.6679 38.0053 91.8653 38.8 91.8653 39.728C91.8653 39.824 91.8599 39.936 91.8493 40.064C91.8386 40.1813 91.8279 40.2933 91.8173 40.4H84.8253V38.944H90.5052L89.5453 39.376C89.5453 38.928 89.4546 38.5387 89.2733 38.208C89.0919 37.8773 88.8413 37.6213 88.5213 37.44C88.2013 37.248 87.8279 37.152 87.4013 37.152C86.9746 37.152 86.5959 37.248 86.2653 37.44C85.9453 37.6213 85.6946 37.8827 85.5133 38.224C85.3319 38.5547 85.2413 38.9493 85.2413 39.408V39.792C85.2413 40.2613 85.3426 40.6773 85.5453 41.04C85.7586 41.392 86.0519 41.664 86.4253 41.856C86.8093 42.0373 87.2573 42.128 87.7693 42.128C88.2279 42.128 88.6279 42.0587 88.9693 41.92C89.3213 41.7813 89.6413 41.5733 89.9293 41.296L91.2573 42.736C90.8626 43.184 90.3666 43.5307 89.7693 43.776C89.1719 44.0107 88.4839 44.128 87.7053 44.128ZM87.3373 34.208C86.9426 34.208 86.6173 34.08 86.3613 33.824C86.1159 33.568 85.9933 33.2427 85.9933 32.848C85.9933 32.464 86.1159 32.144 86.3613 31.888C86.6173 31.632 86.9426 31.504 87.3373 31.504C87.7213 31.504 88.0413 31.632 88.2973 31.888C88.5533 32.144 88.6813 32.464 88.6813 32.848C88.6813 33.2427 88.5533 33.568 88.2973 33.824C88.0413 34.08 87.7213 34.208 87.3373 34.208ZM93.527 44V32.128H96.023V44H93.527ZM98.3395 44V35.392H100.836V44H98.3395ZM99.5875 34.192C99.1288 34.192 98.7555 34.0587 98.4675 33.792C98.1795 33.5253 98.0355 33.1947 98.0355 32.8C98.0355 32.4053 98.1795 32.0747 98.4675 31.808C98.7555 31.5413 99.1288 31.408 99.5875 31.408C100.046 31.408 100.42 31.536 100.708 31.792C100.996 32.0373 101.14 32.3573 101.14 32.752C101.14 33.168 100.996 33.5147 100.708 33.792C100.43 34.0587 100.057 34.192 99.5875 34.192ZM107.248 44.128C106.331 44.128 105.515 43.936 104.8 43.552C104.096 43.168 103.536 42.6453 103.12 41.984C102.715 41.312 102.512 40.5493 102.512 39.696C102.512 38.832 102.715 38.0693 103.12 37.408C103.536 36.736 104.096 36.2133 104.8 35.84C105.515 35.456 106.331 35.264 107.248 35.264C108.155 35.264 108.965 35.456 109.68 35.84C110.395 36.2133 110.955 36.7307 111.36 37.392C111.765 38.0533 111.968 38.8213 111.968 39.696C111.968 40.5493 111.765 41.312 111.36 41.984C110.955 42.6453 110.395 43.168 109.68 43.552C108.965 43.936 108.155 44.128 107.248 44.128ZM107.248 42.08C107.664 42.08 108.037 41.984 108.368 41.792C108.699 41.6 108.96 41.328 109.152 40.976C109.344 40.6133 109.44 40.1867 109.44 39.696C109.44 39.1947 109.344 38.768 109.152 38.416C108.96 38.064 108.699 37.792 108.368 37.6C108.037 37.408 107.664 37.312 107.248 37.312C106.832 37.312 106.459 37.408 106.128 37.6C105.797 37.792 105.531 38.064 105.328 38.416C105.136 38.768 105.04 39.1947 105.04 39.696C105.04 40.1867 105.136 40.6133 105.328 40.976C105.531 41.328 105.797 41.6 106.128 41.792C106.459 41.984 106.832 42.08 107.248 42.08ZM40.56 68V66.496L45.648 60.48L46.08 61.312H40.672V59.392H48.096V60.896L43.008 66.912L42.56 66.08H48.24V68H40.56ZM53.8261 68.128C52.9088 68.128 52.0928 67.936 51.3781 67.552C50.6741 67.168 50.1141 66.6453 49.6981 65.984C49.2928 65.312 49.0901 64.5493 49.0901 63.696C49.0901 62.832 49.2928 62.0693 49.6981 61.408C50.1141 60.736 50.6741 60.2133 51.3781 59.84C52.0928 59.456 52.9088 59.264 53.8261 59.264C54.7328 59.264 55.5435 59.456 56.2581 59.84C56.9728 60.2133 57.5328 60.7307 57.9381 61.392C58.3435 62.0533 58.5461 62.8213 58.5461 63.696C58.5461 64.5493 58.3435 65.312 57.9381 65.984C57.5328 66.6453 56.9728 67.168 56.2581 67.552C55.5435 67.936 54.7328 68.128 53.8261 68.128ZM53.8261 66.08C54.2421 66.08 54.6155 65.984 54.9461 65.792C55.2768 65.6 55.5381 65.328 55.7301 64.976C55.9221 64.6133 56.0181 64.1867 56.0181 63.696C56.0181 63.1947 55.9221 62.768 55.7301 62.416C55.5381 62.064 55.2768 61.792 54.9461 61.6C54.6155 61.408 54.2421 61.312 53.8261 61.312C53.4101 61.312 53.0368 61.408 52.7061 61.6C52.3755 61.792 52.1088 62.064 51.9061 62.416C51.7141 62.768 51.6181 63.1947 51.6181 63.696C51.6181 64.1867 51.7141 64.6133 51.9061 64.976C52.1088 65.328 52.3755 65.6 52.7061 65.792C53.0368 65.984 53.4101 66.08 53.8261 66.08ZM65.4465 59.264C66.1292 59.264 66.7372 59.4027 67.2705 59.68C67.8145 59.9467 68.2412 60.3627 68.5505 60.928C68.8598 61.4827 69.0145 62.1973 69.0145 63.072V68H66.5185V63.456C66.5185 62.7627 66.3638 62.2507 66.0545 61.92C65.7558 61.5893 65.3292 61.424 64.7745 61.424C64.3798 61.424 64.0225 61.5093 63.7025 61.68C63.3932 61.84 63.1478 62.0907 62.9665 62.432C62.7958 62.7733 62.7105 63.2107 62.7105 63.744V68H60.2145V59.392H62.5985V61.776L62.1505 61.056C62.4598 60.48 62.9025 60.0373 63.4785 59.728C64.0545 59.4187 64.7105 59.264 65.4465 59.264ZM76.557 68V66.32L76.397 65.952V62.944C76.397 62.4107 76.2317 61.9947 75.901 61.696C75.581 61.3973 75.085 61.248 74.413 61.248C73.9543 61.248 73.501 61.3227 73.053 61.472C72.6157 61.6107 72.2423 61.8027 71.933 62.048L71.037 60.304C71.5063 59.9733 72.0717 59.7173 72.733 59.536C73.3943 59.3547 74.0663 59.264 74.749 59.264C76.061 59.264 77.0797 59.5733 77.805 60.192C78.5303 60.8107 78.893 61.776 78.893 63.088V68H76.557ZM73.933 68.128C73.261 68.128 72.685 68.016 72.205 67.792C71.725 67.5573 71.357 67.2427 71.101 66.848C70.845 66.4533 70.717 66.0107 70.717 65.52C70.717 65.008 70.8397 64.56 71.085 64.176C71.341 63.792 71.741 63.4933 72.285 63.28C72.829 63.056 73.5383 62.944 74.413 62.944H76.701V64.4H74.685C74.0983 64.4 73.693 64.496 73.469 64.688C73.2557 64.88 73.149 65.12 73.149 65.408C73.149 65.728 73.2717 65.984 73.517 66.176C73.773 66.3573 74.1197 66.448 74.557 66.448C74.973 66.448 75.3463 66.352 75.677 66.16C76.0077 65.9573 76.2477 65.664 76.397 65.28L76.781 66.432C76.5997 66.9867 76.269 67.408 75.789 67.696C75.309 67.984 74.6903 68.128 73.933 68.128Z" fill="#333333"/>
<path d="M215.008 44.192C214.112 44.192 213.253 44.0747 212.432 43.84C211.611 43.5947 210.949 43.28 210.448 42.896L211.328 40.944C211.808 41.2853 212.373 41.568 213.024 41.792C213.685 42.0053 214.352 42.112 215.024 42.112C215.536 42.112 215.947 42.064 216.256 41.968C216.576 41.8613 216.811 41.7173 216.96 41.536C217.109 41.3547 217.184 41.1467 217.184 40.912C217.184 40.6133 217.067 40.3787 216.832 40.208C216.597 40.0267 216.288 39.8827 215.904 39.776C215.52 39.6587 215.093 39.552 214.624 39.456C214.165 39.3493 213.701 39.2213 213.232 39.072C212.773 38.9227 212.352 38.7307 211.968 38.496C211.584 38.2613 211.269 37.952 211.024 37.568C210.789 37.184 210.672 36.6933 210.672 36.096C210.672 35.456 210.843 34.8747 211.184 34.352C211.536 33.8187 212.059 33.3973 212.752 33.088C213.456 32.768 214.336 32.608 215.392 32.608C216.096 32.608 216.789 32.6933 217.472 32.864C218.155 33.024 218.757 33.2693 219.28 33.6L218.48 35.568C217.957 35.2693 217.435 35.0507 216.912 34.912C216.389 34.7627 215.877 34.688 215.376 34.688C214.875 34.688 214.464 34.7467 214.144 34.864C213.824 34.9813 213.595 35.136 213.456 35.328C213.317 35.5093 213.248 35.7227 213.248 35.968C213.248 36.256 213.365 36.4907 213.6 36.672C213.835 36.8427 214.144 36.9813 214.528 37.088C214.912 37.1947 215.333 37.3013 215.792 37.408C216.261 37.5147 216.725 37.6373 217.184 37.776C217.653 37.9147 218.08 38.1013 218.464 38.336C218.848 38.5707 219.157 38.88 219.392 39.264C219.637 39.648 219.76 40.1333 219.76 40.72C219.76 41.3493 219.584 41.9253 219.232 42.448C218.88 42.9707 218.352 43.392 217.648 43.712C216.955 44.032 216.075 44.192 215.008 44.192ZM225.451 44.128C224.534 44.128 223.718 43.936 223.003 43.552C222.299 43.168 221.739 42.6453 221.323 41.984C220.918 41.312 220.715 40.5493 220.715 39.696C220.715 38.832 220.918 38.0693 221.323 37.408C221.739 36.736 222.299 36.2133 223.003 35.84C223.718 35.456 224.534 35.264 225.451 35.264C226.358 35.264 227.168 35.456 227.883 35.84C228.598 36.2133 229.158 36.7307 229.563 37.392C229.968 38.0533 230.171 38.8213 230.171 39.696C230.171 40.5493 229.968 41.312 229.563 41.984C229.158 42.6453 228.598 43.168 227.883 43.552C227.168 43.936 226.358 44.128 225.451 44.128ZM225.451 42.08C225.867 42.08 226.24 41.984 226.571 41.792C226.902 41.6 227.163 41.328 227.355 40.976C227.547 40.6133 227.643 40.1867 227.643 39.696C227.643 39.1947 227.547 38.768 227.355 38.416C227.163 38.064 226.902 37.792 226.571 37.6C226.24 37.408 225.867 37.312 225.451 37.312C225.035 37.312 224.662 37.408 224.331 37.6C224 37.792 223.734 38.064 223.531 38.416C223.339 38.768 223.243 39.1947 223.243 39.696C223.243 40.1867 223.339 40.6133 223.531 40.976C223.734 41.328 224 41.6 224.331 41.792C224.662 41.984 225.035 42.08 225.451 42.08ZM236 44.128C235.072 44.128 234.245 43.9413 233.52 43.568C232.794 43.184 232.224 42.656 231.808 41.984C231.402 41.312 231.2 40.5493 231.2 39.696C231.2 38.832 231.402 38.0693 231.808 37.408C232.224 36.736 232.794 36.2133 233.52 35.84C234.245 35.456 235.072 35.264 236 35.264C236.906 35.264 237.696 35.456 238.368 35.84C239.04 36.2133 239.536 36.752 239.856 37.456L237.92 38.496C237.696 38.0907 237.413 37.792 237.072 37.6C236.741 37.408 236.378 37.312 235.984 37.312C235.557 37.312 235.173 37.408 234.832 37.6C234.49 37.792 234.218 38.064 234.016 38.416C233.824 38.768 233.728 39.1947 233.728 39.696C233.728 40.1973 233.824 40.624 234.016 40.976C234.218 41.328 234.49 41.6 234.832 41.792C235.173 41.984 235.557 42.08 235.984 42.08C236.378 42.08 236.741 41.9893 237.072 41.808C237.413 41.616 237.696 41.312 237.92 40.896L239.856 41.952C239.536 42.6453 239.04 43.184 238.368 43.568C237.696 43.9413 236.906 44.128 236 44.128ZM241.246 44V35.392H243.742V44H241.246ZM242.494 34.192C242.035 34.192 241.662 34.0587 241.374 33.792C241.086 33.5253 240.942 33.1947 240.942 32.8C240.942 32.4053 241.086 32.0747 241.374 31.808C241.662 31.5413 242.035 31.408 242.494 31.408C242.952 31.408 243.326 31.536 243.614 31.792C243.902 32.0373 244.046 32.3573 244.046 32.752C244.046 33.168 243.902 33.5147 243.614 33.792C243.336 34.0587 242.963 34.192 242.494 34.192ZM251.338 44V42.32L251.178 41.952V38.944C251.178 38.4107 251.013 37.9947 250.682 37.696C250.362 37.3973 249.866 37.248 249.194 37.248C248.736 37.248 248.282 37.3227 247.834 37.472C247.397 37.6107 247.024 37.8027 246.714 38.048L245.818 36.304C246.288 35.9733 246.853 35.7173 247.514 35.536C248.176 35.3547 248.848 35.264 249.53 35.264C250.842 35.264 251.861 35.5733 252.586 36.192C253.312 36.8107 253.674 37.776 253.674 39.088V44H251.338ZM248.714 44.128C248.042 44.128 247.466 44.016 246.986 43.792C246.506 43.5573 246.138 43.2427 245.882 42.848C245.626 42.4533 245.498 42.0107 245.498 41.52C245.498 41.008 245.621 40.56 245.866 40.176C246.122 39.792 246.522 39.4933 247.066 39.28C247.61 39.056 248.32 38.944 249.194 38.944H251.482V40.4H249.466C248.88 40.4 248.474 40.496 248.25 40.688C248.037 40.88 247.93 41.12 247.93 41.408C247.93 41.728 248.053 41.984 248.298 42.176C248.554 42.3573 248.901 42.448 249.338 42.448C249.754 42.448 250.128 42.352 250.458 42.16C250.789 41.9573 251.029 41.664 251.178 41.28L251.562 42.432C251.381 42.9867 251.05 43.408 250.57 43.696C250.09 43.984 249.472 44.128 248.714 44.128ZM255.933 44V32.128H258.429V44H255.933ZM260.746 44V35.392H263.242V44H260.746ZM261.994 34.192C261.535 34.192 261.162 34.0587 260.874 33.792C260.586 33.5253 260.442 33.1947 260.442 32.8C260.442 32.4053 260.586 32.0747 260.874 31.808C261.162 31.5413 261.535 31.408 261.994 31.408C262.452 31.408 262.826 31.536 263.114 31.792C263.402 32.0373 263.546 32.3573 263.546 32.752C263.546 33.168 263.402 33.5147 263.114 33.792C262.836 34.0587 262.463 34.192 261.994 34.192ZM270.79 35.264C271.473 35.264 272.081 35.4027 272.614 35.68C273.158 35.9467 273.585 36.3627 273.894 36.928C274.204 37.4827 274.358 38.1973 274.358 39.072V44H271.862V39.456C271.862 38.7627 271.708 38.2507 271.398 37.92C271.1 37.5893 270.673 37.424 270.118 37.424C269.724 37.424 269.366 37.5093 269.046 37.68C268.737 37.84 268.492 38.0907 268.31 38.432C268.14 38.7733 268.054 39.2107 268.054 39.744V44H265.558V35.392H267.942V37.776L267.494 37.056C267.804 36.48 268.246 36.0373 268.822 35.728C269.398 35.4187 270.054 35.264 270.79 35.264ZM280.955 44.128C279.974 44.128 279.11 43.936 278.363 43.552C277.627 43.168 277.057 42.6453 276.651 41.984C276.246 41.312 276.043 40.5493 276.043 39.696C276.043 38.832 276.241 38.0693 276.635 37.408C277.041 36.736 277.59 36.2133 278.283 35.84C278.977 35.456 279.761 35.264 280.635 35.264C281.478 35.264 282.235 35.4453 282.907 35.808C283.59 36.16 284.129 36.672 284.523 37.344C284.918 38.0053 285.115 38.8 285.115 39.728C285.115 39.824 285.11 39.936 285.099 40.064C285.089 40.1813 285.078 40.2933 285.067 40.4H278.075V38.944H283.755L282.795 39.376C282.795 38.928 282.705 38.5387 282.523 38.208C282.342 37.8773 282.091 37.6213 281.771 37.44C281.451 37.248 281.078 37.152 280.651 37.152C280.225 37.152 279.846 37.248 279.515 37.44C279.195 37.6213 278.945 37.8827 278.763 38.224C278.582 38.5547 278.491 38.9493 278.491 39.408V39.792C278.491 40.2613 278.593 40.6773 278.795 41.04C279.009 41.392 279.302 41.664 279.675 41.856C280.059 42.0373 280.507 42.128 281.019 42.128C281.478 42.128 281.878 42.0587 282.219 41.92C282.571 41.7813 282.891 41.5733 283.179 41.296L284.507 42.736C284.113 43.184 283.617 43.5307 283.019 43.776C282.422 44.0107 281.734 44.128 280.955 44.128ZM280.587 34.208C280.193 34.208 279.867 34.08 279.611 33.824C279.366 33.568 279.243 33.2427 279.243 32.848C279.243 32.464 279.366 32.144 279.611 31.888C279.867 31.632 280.193 31.504 280.587 31.504C280.971 31.504 281.291 31.632 281.547 31.888C281.803 32.144 281.931 32.464 281.931 32.848C281.931 33.2427 281.803 33.568 281.547 33.824C281.291 34.08 280.971 34.208 280.587 34.208ZM289.673 44.128C288.937 44.128 288.228 44.0427 287.545 43.872C286.873 43.6907 286.34 43.4667 285.945 43.2L286.777 41.408C287.172 41.6533 287.636 41.856 288.169 42.016C288.713 42.1653 289.246 42.24 289.769 42.24C290.345 42.24 290.75 42.1707 290.985 42.032C291.23 41.8933 291.353 41.7013 291.353 41.456C291.353 41.2533 291.257 41.104 291.065 41.008C290.884 40.9013 290.638 40.8213 290.329 40.768C290.02 40.7147 289.678 40.6613 289.305 40.608C288.942 40.5547 288.574 40.4853 288.201 40.4C287.828 40.304 287.486 40.1653 287.177 39.984C286.868 39.8027 286.617 39.5573 286.425 39.248C286.244 38.9387 286.153 38.5387 286.153 38.048C286.153 37.504 286.308 37.024 286.617 36.608C286.937 36.192 287.396 35.8667 287.993 35.632C288.59 35.3867 289.305 35.264 290.137 35.264C290.724 35.264 291.321 35.328 291.929 35.456C292.537 35.584 293.044 35.7707 293.449 36.016L292.617 37.792C292.201 37.5467 291.78 37.3813 291.353 37.296C290.937 37.2 290.532 37.152 290.137 37.152C289.582 37.152 289.177 37.2267 288.921 37.376C288.665 37.5253 288.537 37.7173 288.537 37.952C288.537 38.1653 288.628 38.3253 288.809 38.432C289.001 38.5387 289.252 38.624 289.561 38.688C289.87 38.752 290.206 38.8107 290.569 38.864C290.942 38.9067 291.316 38.976 291.689 39.072C292.062 39.168 292.398 39.3067 292.697 39.488C293.006 39.6587 293.257 39.8987 293.449 40.208C293.641 40.5067 293.737 40.9013 293.737 41.392C293.737 41.9253 293.577 42.4 293.257 42.816C292.937 43.2213 292.473 43.5413 291.865 43.776C291.268 44.0107 290.537 44.128 289.673 44.128ZM304.896 44.128C304.171 44.128 303.536 43.968 302.992 43.648C302.448 43.328 302.022 42.8427 301.712 42.192C301.414 41.5307 301.264 40.6987 301.264 39.696C301.264 38.6827 301.408 37.8507 301.696 37.2C301.984 36.5493 302.4 36.064 302.944 35.744C303.488 35.424 304.139 35.264 304.896 35.264C305.707 35.264 306.432 35.4507 307.072 35.824C307.723 36.1867 308.235 36.6987 308.608 37.36C308.992 38.0213 309.184 38.8 309.184 39.696C309.184 40.6027 308.992 41.3867 308.608 42.048C308.235 42.7093 307.723 43.2213 307.072 43.584C306.432 43.9467 305.707 44.128 304.896 44.128ZM299.808 47.104V35.392H302.192V37.152L302.144 39.712L302.304 42.256V47.104H299.808ZM304.464 42.08C304.88 42.08 305.248 41.984 305.568 41.792C305.899 41.6 306.16 41.328 306.352 40.976C306.555 40.6133 306.656 40.1867 306.656 39.696C306.656 39.1947 306.555 38.768 306.352 38.416C306.16 38.064 305.899 37.792 305.568 37.6C305.248 37.408 304.88 37.312 304.464 37.312C304.048 37.312 303.675 37.408 303.344 37.6C303.014 37.792 302.752 38.064 302.56 38.416C302.368 38.768 302.272 39.1947 302.272 39.696C302.272 40.1867 302.368 40.6133 302.56 40.976C302.752 41.328 303.014 41.6 303.344 41.792C303.675 41.984 304.048 42.08 304.464 42.08ZM315.995 44V42.32L315.835 41.952V38.944C315.835 38.4107 315.669 37.9947 315.339 37.696C315.019 37.3973 314.523 37.248 313.851 37.248C313.392 37.248 312.939 37.3227 312.491 37.472C312.053 37.6107 311.68 37.8027 311.371 38.048L310.475 36.304C310.944 35.9733 311.509 35.7173 312.171 35.536C312.832 35.3547 313.504 35.264 314.187 35.264C315.499 35.264 316.517 35.5733 317.243 36.192C317.968 36.8107 318.331 37.776 318.331 39.088V44H315.995ZM313.371 44.128C312.699 44.128 312.123 44.016 311.643 43.792C311.163 43.5573 310.795 43.2427 310.539 42.848C310.283 42.4533 310.155 42.0107 310.155 41.52C310.155 41.008 310.277 40.56 310.523 40.176C310.779 39.792 311.179 39.4933 311.723 39.28C312.267 39.056 312.976 38.944 313.851 38.944H316.139V40.4H314.123C313.536 40.4 313.131 40.496 312.907 40.688C312.693 40.88 312.587 41.12 312.587 41.408C312.587 41.728 312.709 41.984 312.955 42.176C313.211 42.3573 313.557 42.448 313.995 42.448C314.411 42.448 314.784 42.352 315.115 42.16C315.445 41.9573 315.685 41.664 315.835 41.28L316.219 42.432C316.037 42.9867 315.707 43.408 315.227 43.696C314.747 43.984 314.128 44.128 313.371 44.128ZM324.11 44.128C323.096 44.128 322.307 43.872 321.742 43.36C321.176 42.8373 320.894 42.064 320.894 41.04V33.488H323.39V41.008C323.39 41.3707 323.486 41.6533 323.678 41.856C323.87 42.048 324.131 42.144 324.462 42.144C324.856 42.144 325.192 42.0373 325.47 41.824L326.142 43.584C325.886 43.7653 325.576 43.904 325.214 44C324.862 44.0853 324.494 44.128 324.11 44.128ZM319.566 37.504V35.584H325.534V37.504H319.566ZM332.823 44V42.32L332.663 41.952V38.944C332.663 38.4107 332.497 37.9947 332.167 37.696C331.847 37.3973 331.351 37.248 330.679 37.248C330.22 37.248 329.767 37.3227 329.319 37.472C328.881 37.6107 328.508 37.8027 328.199 38.048L327.303 36.304C327.772 35.9733 328.337 35.7173 328.999 35.536C329.66 35.3547 330.332 35.264 331.015 35.264C332.327 35.264 333.345 35.5733 334.071 36.192C334.796 36.8107 335.159 37.776 335.159 39.088V44H332.823ZM330.199 44.128C329.527 44.128 328.951 44.016 328.471 43.792C327.991 43.5573 327.623 43.2427 327.367 42.848C327.111 42.4533 326.983 42.0107 326.983 41.52C326.983 41.008 327.105 40.56 327.351 40.176C327.607 39.792 328.007 39.4933 328.551 39.28C329.095 39.056 329.804 38.944 330.679 38.944H332.967V40.4H330.951C330.364 40.4 329.959 40.496 329.735 40.688C329.521 40.88 329.415 41.12 329.415 41.408C329.415 41.728 329.537 41.984 329.783 42.176C330.039 42.3573 330.385 42.448 330.823 42.448C331.239 42.448 331.612 42.352 331.943 42.16C332.273 41.9573 332.513 41.664 332.663 41.28L333.047 42.432C332.865 42.9867 332.535 43.408 332.055 43.696C331.575 43.984 330.956 44.128 330.199 44.128ZM337.418 44V32.128H339.914V44H337.418ZM347.318 44.128C346.593 44.128 345.958 43.968 345.414 43.648C344.87 43.328 344.443 42.8427 344.134 42.192C343.835 41.5307 343.686 40.6987 343.686 39.696C343.686 38.6827 343.83 37.8507 344.118 37.2C344.406 36.5493 344.822 36.064 345.366 35.744C345.91 35.424 346.561 35.264 347.318 35.264C348.129 35.264 348.854 35.4507 349.494 35.824C350.145 36.1867 350.657 36.6987 351.03 37.36C351.414 38.0213 351.606 38.8 351.606 39.696C351.606 40.6027 351.414 41.3867 351.03 42.048C350.657 42.7093 350.145 43.2213 349.494 43.584C348.854 43.9467 348.129 44.128 347.318 44.128ZM342.23 47.104V35.392H344.614V37.152L344.566 39.712L344.726 42.256V47.104H342.23ZM346.886 42.08C347.302 42.08 347.67 41.984 347.99 41.792C348.321 41.6 348.582 41.328 348.774 40.976C348.977 40.6133 349.078 40.1867 349.078 39.696C349.078 39.1947 348.977 38.768 348.774 38.416C348.582 38.064 348.321 37.792 347.99 37.6C347.67 37.408 347.302 37.312 346.886 37.312C346.47 37.312 346.097 37.408 345.766 37.6C345.435 37.792 345.174 38.064 344.982 38.416C344.79 38.768 344.694 39.1947 344.694 39.696C344.694 40.1867 344.79 40.6133 344.982 40.976C345.174 41.328 345.435 41.6 345.766 41.792C346.097 41.984 346.47 42.08 346.886 42.08ZM357.373 44.128C356.456 44.128 355.64 43.936 354.925 43.552C354.221 43.168 353.661 42.6453 353.245 41.984C352.84 41.312 352.637 40.5493 352.637 39.696C352.637 38.832 352.84 38.0693 353.245 37.408C353.661 36.736 354.221 36.2133 354.925 35.84C355.64 35.456 356.456 35.264 357.373 35.264C358.28 35.264 359.09 35.456 359.805 35.84C360.52 36.2133 361.08 36.7307 361.485 37.392C361.89 38.0533 362.093 38.8213 362.093 39.696C362.093 40.5493 361.89 41.312 361.485 41.984C361.08 42.6453 360.52 43.168 359.805 43.552C359.09 43.936 358.28 44.128 357.373 44.128ZM357.373 42.08C357.789 42.08 358.162 41.984 358.493 41.792C358.824 41.6 359.085 41.328 359.277 40.976C359.469 40.6133 359.565 40.1867 359.565 39.696C359.565 39.1947 359.469 38.768 359.277 38.416C359.085 38.064 358.824 37.792 358.493 37.6C358.162 37.408 357.789 37.312 357.373 37.312C356.957 37.312 356.584 37.408 356.253 37.6C355.922 37.792 355.656 38.064 355.453 38.416C355.261 38.768 355.165 39.1947 355.165 39.696C355.165 40.1867 355.261 40.6133 355.453 40.976C355.656 41.328 355.922 41.6 356.253 41.792C356.584 41.984 356.957 42.08 357.373 42.08ZM366.657 44.128C365.921 44.128 365.212 44.0427 364.529 43.872C363.857 43.6907 363.324 43.4667 362.929 43.2L363.761 41.408C364.156 41.6533 364.62 41.856 365.153 42.016C365.697 42.1653 366.231 42.24 366.753 42.24C367.329 42.24 367.735 42.1707 367.969 42.032C368.215 41.8933 368.337 41.7013 368.337 41.456C368.337 41.2533 368.241 41.104 368.049 41.008C367.868 40.9013 367.623 40.8213 367.313 40.768C367.004 40.7147 366.663 40.6613 366.289 40.608C365.927 40.5547 365.559 40.4853 365.185 40.4C364.812 40.304 364.471 40.1653 364.161 39.984C363.852 39.8027 363.601 39.5573 363.409 39.248C363.228 38.9387 363.137 38.5387 363.137 38.048C363.137 37.504 363.292 37.024 363.601 36.608C363.921 36.192 364.38 35.8667 364.977 35.632C365.575 35.3867 366.289 35.264 367.121 35.264C367.708 35.264 368.305 35.328 368.913 35.456C369.521 35.584 370.028 35.7707 370.433 36.016L369.601 37.792C369.185 37.5467 368.764 37.3813 368.337 37.296C367.921 37.2 367.516 37.152 367.121 37.152C366.567 37.152 366.161 37.2267 365.905 37.376C365.649 37.5253 365.521 37.7173 365.521 37.952C365.521 38.1653 365.612 38.3253 365.793 38.432C365.985 38.5387 366.236 38.624 366.545 38.688C366.855 38.752 367.191 38.8107 367.553 38.864C367.927 38.9067 368.3 38.976 368.673 39.072C369.047 39.168 369.383 39.3067 369.681 39.488C369.991 39.6587 370.241 39.8987 370.433 40.208C370.625 40.5067 370.721 40.9013 370.721 41.392C370.721 41.9253 370.561 42.4 370.241 42.816C369.921 43.2213 369.457 43.5413 368.849 43.776C368.252 44.0107 367.521 44.128 366.657 44.128ZM216.432 68V66.32L216.272 65.952V62.944C216.272 62.4107 216.107 61.9947 215.776 61.696C215.456 61.3973 214.96 61.248 214.288 61.248C213.829 61.248 213.376 61.3227 212.928 61.472C212.491 61.6107 212.117 61.8027 211.808 62.048L210.912 60.304C211.381 59.9733 211.947 59.7173 212.608 59.536C213.269 59.3547 213.941 59.264 214.624 59.264C215.936 59.264 216.955 59.5733 217.68 60.192C218.405 60.8107 218.768 61.776 218.768 63.088V68H216.432ZM213.808 68.128C213.136 68.128 212.56 68.016 212.08 67.792C211.6 67.5573 211.232 67.2427 210.976 66.848C210.72 66.4533 210.592 66.0107 210.592 65.52C210.592 65.008 210.715 64.56 210.96 64.176C211.216 63.792 211.616 63.4933 212.16 63.28C212.704 63.056 213.413 62.944 214.288 62.944H216.576V64.4H214.56C213.973 64.4 213.568 64.496 213.344 64.688C213.131 64.88 213.024 65.12 213.024 65.408C213.024 65.728 213.147 65.984 213.392 66.176C213.648 66.3573 213.995 66.448 214.432 66.448C214.848 66.448 215.221 66.352 215.552 66.16C215.883 65.9573 216.123 65.664 216.272 65.28L216.656 66.432C216.475 66.9867 216.144 67.408 215.664 67.696C215.184 67.984 214.565 68.128 213.808 68.128ZM226.259 59.264C226.942 59.264 227.55 59.4027 228.083 59.68C228.627 59.9467 229.054 60.3627 229.363 60.928C229.672 61.4827 229.827 62.1973 229.827 63.072V68H227.331V63.456C227.331 62.7627 227.176 62.2507 226.867 61.92C226.568 61.5893 226.142 61.424 225.587 61.424C225.192 61.424 224.835 61.5093 224.515 61.68C224.206 61.84 223.96 62.0907 223.779 62.432C223.608 62.7733 223.523 63.2107 223.523 63.744V68H221.027V59.392H223.411V61.776L222.963 61.056C223.272 60.48 223.715 60.0373 224.291 59.728C224.867 59.4187 225.523 59.264 226.259 59.264ZM235.61 68.128C234.596 68.128 233.807 67.872 233.242 67.36C232.676 66.8373 232.394 66.064 232.394 65.04V57.488H234.89V65.008C234.89 65.3707 234.986 65.6533 235.178 65.856C235.37 66.048 235.631 66.144 235.962 66.144C236.356 66.144 236.692 66.0373 236.97 65.824L237.642 67.584C237.386 67.7653 237.076 67.904 236.714 68C236.362 68.0853 235.994 68.128 235.61 68.128ZM231.066 61.504V59.584H237.034V61.504H231.066ZM239.043 68V59.392H241.427V61.824L241.091 61.12C241.347 60.512 241.757 60.0533 242.323 59.744C242.888 59.424 243.576 59.264 244.387 59.264V61.568C244.28 61.5573 244.184 61.552 244.099 61.552C244.013 61.5413 243.923 61.536 243.827 61.536C243.144 61.536 242.589 61.7333 242.163 62.128C241.747 62.512 241.539 63.1147 241.539 63.936V68H239.043ZM250.08 68.128C249.099 68.128 248.235 67.936 247.488 67.552C246.752 67.168 246.182 66.6453 245.776 65.984C245.371 65.312 245.168 64.5493 245.168 63.696C245.168 62.832 245.366 62.0693 245.76 61.408C246.166 60.736 246.715 60.2133 247.408 59.84C248.102 59.456 248.886 59.264 249.76 59.264C250.603 59.264 251.36 59.4453 252.032 59.808C252.715 60.16 253.254 60.672 253.648 61.344C254.043 62.0053 254.24 62.8 254.24 63.728C254.24 63.824 254.235 63.936 254.224 64.064C254.214 64.1813 254.203 64.2933 254.192 64.4H247.2V62.944H252.88L251.92 63.376C251.92 62.928 251.83 62.5387 251.648 62.208C251.467 61.8773 251.216 61.6213 250.896 61.44C250.576 61.248 250.203 61.152 249.776 61.152C249.35 61.152 248.971 61.248 248.64 61.44C248.32 61.6213 248.07 61.8827 247.888 62.224C247.707 62.5547 247.616 62.9493 247.616 63.408V63.792C247.616 64.2613 247.718 64.6773 247.92 65.04C248.134 65.392 248.427 65.664 248.8 65.856C249.184 66.0373 249.632 66.128 250.144 66.128C250.603 66.128 251.003 66.0587 251.344 65.92C251.696 65.7813 252.016 65.5733 252.304 65.296L253.632 66.736C253.238 67.184 252.742 67.5307 252.144 67.776C251.547 68.0107 250.859 68.128 250.08 68.128ZM258.798 68.128C258.062 68.128 257.353 68.0427 256.67 67.872C255.998 67.6907 255.465 67.4667 255.07 67.2L255.902 65.408C256.297 65.6533 256.761 65.856 257.294 66.016C257.838 66.1653 258.371 66.24 258.894 66.24C259.47 66.24 259.875 66.1707 260.11 66.032C260.355 65.8933 260.478 65.7013 260.478 65.456C260.478 65.2533 260.382 65.104 260.19 65.008C260.009 64.9013 259.763 64.8213 259.454 64.768C259.145 64.7147 258.803 64.6613 258.43 64.608C258.067 64.5547 257.699 64.4853 257.326 64.4C256.953 64.304 256.611 64.1653 256.302 63.984C255.993 63.8027 255.742 63.5573 255.55 63.248C255.369 62.9387 255.278 62.5387 255.278 62.048C255.278 61.504 255.433 61.024 255.742 60.608C256.062 60.192 256.521 59.8667 257.118 59.632C257.715 59.3867 258.43 59.264 259.262 59.264C259.849 59.264 260.446 59.328 261.054 59.456C261.662 59.584 262.169 59.7707 262.574 60.016L261.742 61.792C261.326 61.5467 260.905 61.3813 260.478 61.296C260.062 61.2 259.657 61.152 259.262 61.152C258.707 61.152 258.302 61.2267 258.046 61.376C257.79 61.5253 257.662 61.7173 257.662 61.952C257.662 62.1653 257.753 62.3253 257.934 62.432C258.126 62.5387 258.377 62.624 258.686 62.688C258.995 62.752 259.331 62.8107 259.694 62.864C260.067 62.9067 260.441 62.976 260.814 63.072C261.187 63.168 261.523 63.3067 261.822 63.488C262.131 63.6587 262.382 63.8987 262.574 64.208C262.766 64.5067 262.862 64.9013 262.862 65.392C262.862 65.9253 262.702 66.4 262.382 66.816C262.062 67.2213 261.598 67.5413 260.99 67.776C260.393 68.0107 259.662 68.128 258.798 68.128ZM268.498 68.128C267.581 68.128 266.765 67.936 266.05 67.552C265.346 67.168 264.786 66.6453 264.37 65.984C263.965 65.312 263.762 64.5493 263.762 63.696C263.762 62.832 263.965 62.0693 264.37 61.408C264.786 60.736 265.346 60.2133 266.05 59.84C266.765 59.456 267.581 59.264 268.498 59.264C269.405 59.264 270.215 59.456 270.93 59.84C271.645 60.2133 272.205 60.7307 272.61 61.392C273.015 62.0533 273.218 62.8213 273.218 63.696C273.218 64.5493 273.015 65.312 272.61 65.984C272.205 66.6453 271.645 67.168 270.93 67.552C270.215 67.936 269.405 68.128 268.498 68.128ZM268.498 66.08C268.914 66.08 269.287 65.984 269.618 65.792C269.949 65.6 270.21 65.328 270.402 64.976C270.594 64.6133 270.69 64.1867 270.69 63.696C270.69 63.1947 270.594 62.768 270.402 62.416C270.21 62.064 269.949 61.792 269.618 61.6C269.287 61.408 268.914 61.312 268.498 61.312C268.082 61.312 267.709 61.408 267.378 61.6C267.047 61.792 266.781 62.064 266.578 62.416C266.386 62.768 266.29 63.1947 266.29 63.696C266.29 64.1867 266.386 64.6133 266.578 64.976C266.781 65.328 267.047 65.6 267.378 65.792C267.709 65.984 268.082 66.08 268.498 66.08ZM274.886 68V56.128H277.382V68H274.886ZM283.971 68.128C282.99 68.128 282.126 67.936 281.379 67.552C280.643 67.168 280.072 66.6453 279.667 65.984C279.262 65.312 279.059 64.5493 279.059 63.696C279.059 62.832 279.256 62.0693 279.651 61.408C280.056 60.736 280.606 60.2133 281.299 59.84C281.992 59.456 282.776 59.264 283.651 59.264C284.494 59.264 285.251 59.4453 285.923 59.808C286.606 60.16 287.144 60.672 287.539 61.344C287.934 62.0053 288.131 62.8 288.131 63.728C288.131 63.824 288.126 63.936 288.115 64.064C288.104 64.1813 288.094 64.2933 288.083 64.4H281.091V62.944H286.771L285.811 63.376C285.811 62.928 285.72 62.5387 285.539 62.208C285.358 61.8773 285.107 61.6213 284.787 61.44C284.467 61.248 284.094 61.152 283.667 61.152C283.24 61.152 282.862 61.248 282.531 61.44C282.211 61.6213 281.96 61.8827 281.779 62.224C281.598 62.5547 281.507 62.9493 281.507 63.408V63.792C281.507 64.2613 281.608 64.6773 281.811 65.04C282.024 65.392 282.318 65.664 282.691 65.856C283.075 66.0373 283.523 66.128 284.035 66.128C284.494 66.128 284.894 66.0587 285.235 65.92C285.587 65.7813 285.907 65.5733 286.195 65.296L287.523 66.736C287.128 67.184 286.632 67.5307 286.035 67.776C285.438 68.0107 284.75 68.128 283.971 68.128ZM283.603 58.208C283.208 58.208 282.883 58.08 282.627 57.824C282.382 57.568 282.259 57.2427 282.259 56.848C282.259 56.464 282.382 56.144 282.627 55.888C282.883 55.632 283.208 55.504 283.603 55.504C283.987 55.504 284.307 55.632 284.563 55.888C284.819 56.144 284.947 56.464 284.947 56.848C284.947 57.2427 284.819 57.568 284.563 57.824C284.307 58.08 283.987 58.208 283.603 58.208ZM292.689 68.128C291.953 68.128 291.243 68.0427 290.561 67.872C289.889 67.6907 289.355 67.4667 288.961 67.2L289.793 65.408C290.187 65.6533 290.651 65.856 291.185 66.016C291.729 66.1653 292.262 66.24 292.785 66.24C293.361 66.24 293.766 66.1707 294.001 66.032C294.246 65.8933 294.369 65.7013 294.369 65.456C294.369 65.2533 294.273 65.104 294.081 65.008C293.899 64.9013 293.654 64.8213 293.345 64.768C293.035 64.7147 292.694 64.6613 292.321 64.608C291.958 64.5547 291.59 64.4853 291.217 64.4C290.843 64.304 290.502 64.1653 290.193 63.984C289.883 63.8027 289.633 63.5573 289.441 63.248C289.259 62.9387 289.169 62.5387 289.169 62.048C289.169 61.504 289.323 61.024 289.633 60.608C289.953 60.192 290.411 59.8667 291.009 59.632C291.606 59.3867 292.321 59.264 293.153 59.264C293.739 59.264 294.337 59.328 294.945 59.456C295.553 59.584 296.059 59.7707 296.465 60.016L295.633 61.792C295.217 61.5467 294.795 61.3813 294.369 61.296C293.953 61.2 293.547 61.152 293.153 61.152C292.598 61.152 292.193 61.2267 291.937 61.376C291.681 61.5253 291.553 61.7173 291.553 61.952C291.553 62.1653 291.643 62.3253 291.825 62.432C292.017 62.5387 292.267 62.624 292.577 62.688C292.886 62.752 293.222 62.8107 293.585 62.864C293.958 62.9067 294.331 62.976 294.705 63.072C295.078 63.168 295.414 63.3067 295.713 63.488C296.022 63.6587 296.273 63.8987 296.465 64.208C296.657 64.5067 296.753 64.9013 296.753 65.392C296.753 65.9253 296.593 66.4 296.273 66.816C295.953 67.2213 295.489 67.5413 294.881 67.776C294.283 68.0107 293.553 68.128 292.689 68.128ZM302.565 68.128C301.583 68.128 300.719 67.936 299.973 67.552C299.237 67.168 298.666 66.6453 298.261 65.984C297.855 65.312 297.653 64.5493 297.653 63.696C297.653 62.832 297.85 62.0693 298.245 61.408C298.65 60.736 299.199 60.2133 299.893 59.84C300.586 59.456 301.37 59.264 302.245 59.264C303.087 59.264 303.845 59.4453 304.517 59.808C305.199 60.16 305.738 60.672 306.133 61.344C306.527 62.0053 306.725 62.8 306.725 63.728C306.725 63.824 306.719 63.936 306.709 64.064C306.698 64.1813 306.687 64.2933 306.677 64.4H299.685V62.944H305.365L304.405 63.376C304.405 62.928 304.314 62.5387 304.133 62.208C303.951 61.8773 303.701 61.6213 303.381 61.44C303.061 61.248 302.687 61.152 302.261 61.152C301.834 61.152 301.455 61.248 301.125 61.44C300.805 61.6213 300.554 61.8827 300.373 62.224C300.191 62.5547 300.101 62.9493 300.101 63.408V63.792C300.101 64.2613 300.202 64.6773 300.405 65.04C300.618 65.392 300.911 65.664 301.285 65.856C301.669 66.0373 302.117 66.128 302.629 66.128C303.087 66.128 303.487 66.0587 303.829 65.92C304.181 65.7813 304.501 65.5733 304.789 65.296L306.117 66.736C305.722 67.184 305.226 67.5307 304.629 67.776C304.031 68.0107 303.343 68.128 302.565 68.128ZM307.954 70.464L309.01 66.624L309.362 68.064C308.904 68.064 308.525 67.9307 308.226 67.664C307.938 67.3973 307.794 67.0293 307.794 66.56C307.794 66.0907 307.944 65.7173 308.242 65.44C308.541 65.1627 308.909 65.024 309.346 65.024C309.794 65.024 310.162 65.168 310.45 65.456C310.738 65.7333 310.882 66.1013 310.882 66.56C310.882 66.6987 310.872 66.8373 310.85 66.976C310.829 67.104 310.786 67.264 310.722 67.456C310.669 67.6373 310.578 67.872 310.45 68.16L309.538 70.464H307.954ZM319.169 66.24L319.233 63.2L323.249 59.392H326.225L322.369 63.312L321.073 64.368L319.169 66.24ZM317.105 68V56.128H319.601V68H317.105ZM323.521 68L320.609 64.384L322.177 62.448L326.545 68H323.521ZM329.488 68L325.872 59.392H328.448L331.456 66.8H330.176L333.296 59.392H335.696L332.064 68H329.488ZM337.143 68.128C336.716 68.128 336.348 67.984 336.039 67.696C335.74 67.3973 335.591 67.0187 335.591 66.56C335.591 66.1013 335.74 65.7333 336.039 65.456C336.348 65.168 336.716 65.024 337.143 65.024C337.58 65.024 337.948 65.168 338.247 65.456C338.546 65.7333 338.695 66.1013 338.695 66.56C338.695 67.0187 338.546 67.3973 338.247 67.696C337.948 67.984 337.58 68.128 337.143 68.128ZM355.942 59.264C356.624 59.264 357.227 59.4027 357.75 59.68C358.283 59.9467 358.699 60.3627 358.998 60.928C359.307 61.4827 359.462 62.1973 359.462 63.072V68H356.966V63.456C356.966 62.7627 356.822 62.2507 356.534 61.92C356.246 61.5893 355.84 61.424 355.318 61.424C354.955 61.424 354.63 61.5093 354.342 61.68C354.054 61.84 353.83 62.0853 353.67 62.416C353.51 62.7467 353.43 63.168 353.43 63.68V68H350.934V63.456C350.934 62.7627 350.79 62.2507 350.502 61.92C350.224 61.5893 349.824 61.424 349.302 61.424C348.939 61.424 348.614 61.5093 348.326 61.68C348.038 61.84 347.814 62.0853 347.654 62.416C347.494 62.7467 347.414 63.168 347.414 63.68V68H344.918V59.392H347.302V61.744L346.854 61.056C347.152 60.4693 347.574 60.0267 348.118 59.728C348.672 59.4187 349.302 59.264 350.006 59.264C350.795 59.264 351.483 59.4667 352.07 59.872C352.667 60.2667 353.062 60.8747 353.254 61.696L352.374 61.456C352.662 60.784 353.12 60.2507 353.75 59.856C354.39 59.4613 355.12 59.264 355.942 59.264Z" fill="#333333"/>
<path d="M459.328 32V20.8H464.176C465.179 20.8 466.043 20.9653 466.768 21.296C467.493 21.616 468.053 22.08 468.448 22.688C468.843 23.296 469.04 24.0213 469.04 24.864C469.04 25.696 468.843 26.416 468.448 27.024C468.053 27.6213 467.493 28.08 466.768 28.4C466.043 28.72 465.179 28.88 464.176 28.88H460.768L461.92 27.744V32H459.328ZM466.448 32L463.648 27.936H466.416L469.248 32H466.448ZM461.92 28.032L460.768 26.816H464.032C464.832 26.816 465.429 26.6453 465.824 26.304C466.219 25.952 466.416 25.472 466.416 24.864C466.416 24.2453 466.219 23.7653 465.824 23.424C465.429 23.0827 464.832 22.912 464.032 22.912H460.768L461.92 21.68V28.032ZM475.19 32.128C474.208 32.128 473.344 31.936 472.598 31.552C471.862 31.168 471.291 30.6453 470.886 29.984C470.48 29.312 470.278 28.5493 470.278 27.696C470.278 26.832 470.475 26.0693 470.87 25.408C471.275 24.736 471.824 24.2133 472.518 23.84C473.211 23.456 473.995 23.264 474.87 23.264C475.712 23.264 476.47 23.4453 477.142 23.808C477.824 24.16 478.363 24.672 478.758 25.344C479.152 26.0053 479.35 26.8 479.35 27.728C479.35 27.824 479.344 27.936 479.334 28.064C479.323 28.1813 479.312 28.2933 479.302 28.4H472.31V26.944H477.99L477.03 27.376C477.03 26.928 476.939 26.5387 476.758 26.208C476.576 25.8773 476.326 25.6213 476.006 25.44C475.686 25.248 475.312 25.152 474.886 25.152C474.459 25.152 474.08 25.248 473.75 25.44C473.43 25.6213 473.179 25.8827 472.998 26.224C472.816 26.5547 472.726 26.9493 472.726 27.408V27.792C472.726 28.2613 472.827 28.6773 473.03 29.04C473.243 29.392 473.536 29.664 473.91 29.856C474.294 30.0373 474.742 30.128 475.254 30.128C475.712 30.128 476.112 30.0587 476.454 29.92C476.806 29.7813 477.126 29.5733 477.414 29.296L478.742 30.736C478.347 31.184 477.851 31.5307 477.254 31.776C476.656 32.0107 475.968 32.128 475.19 32.128ZM480.341 32V30.496L485.429 24.48L485.861 25.312H480.453V23.392H487.877V24.896L482.789 30.912L482.341 30.08H488.021V32H480.341ZM493.783 32.128C492.802 32.128 491.938 31.936 491.191 31.552C490.455 31.168 489.885 30.6453 489.479 29.984C489.074 29.312 488.871 28.5493 488.871 27.696C488.871 26.832 489.069 26.0693 489.463 25.408C489.869 24.736 490.418 24.2133 491.111 23.84C491.805 23.456 492.589 23.264 493.463 23.264C494.306 23.264 495.063 23.4453 495.735 23.808C496.418 24.16 496.957 24.672 497.351 25.344C497.746 26.0053 497.943 26.8 497.943 27.728C497.943 27.824 497.938 27.936 497.927 28.064C497.917 28.1813 497.906 28.2933 497.895 28.4H490.903V26.944H496.583L495.623 27.376C495.623 26.928 495.533 26.5387 495.351 26.208C495.17 25.8773 494.919 25.6213 494.599 25.44C494.279 25.248 493.906 25.152 493.479 25.152C493.053 25.152 492.674 25.248 492.343 25.44C492.023 25.6213 491.773 25.8827 491.591 26.224C491.41 26.5547 491.319 26.9493 491.319 27.408V27.792C491.319 28.2613 491.421 28.6773 491.623 29.04C491.837 29.392 492.13 29.664 492.503 29.856C492.887 30.0373 493.335 30.128 493.847 30.128C494.306 30.128 494.706 30.0587 495.047 29.92C495.399 29.7813 495.719 29.5733 496.007 29.296L497.335 30.736C496.941 31.184 496.445 31.5307 495.847 31.776C495.25 32.0107 494.562 32.128 493.783 32.128ZM499.605 32V23.392H501.989V25.824L501.653 25.12C501.909 24.512 502.32 24.0533 502.885 23.744C503.45 23.424 504.138 23.264 504.949 23.264V25.568C504.842 25.5573 504.746 25.552 504.661 25.552C504.576 25.5413 504.485 25.536 504.389 25.536C503.706 25.536 503.152 25.7333 502.725 26.128C502.309 26.512 502.101 27.1147 502.101 27.936V32H499.605ZM509.066 32L505.45 23.392H508.026L511.034 30.8H509.754L512.874 23.392H515.274L511.642 32H509.066ZM516.293 32V23.392H518.789V32H516.293ZM517.541 22.192C517.082 22.192 516.709 22.0587 516.421 21.792C516.133 21.5253 515.989 21.1947 515.989 20.8C515.989 20.4053 516.133 20.0747 516.421 19.808C516.709 19.5413 517.082 19.408 517.541 19.408C517.999 19.408 518.373 19.536 518.661 19.792C518.949 20.0373 519.093 20.3573 519.093 20.752C519.093 21.168 518.949 21.5147 518.661 21.792C518.383 22.0587 518.01 22.192 517.541 22.192ZM526.337 23.264C527.02 23.264 527.628 23.4027 528.161 23.68C528.705 23.9467 529.132 24.3627 529.441 24.928C529.75 25.4827 529.905 26.1973 529.905 27.072V32H527.409V27.456C527.409 26.7627 527.254 26.2507 526.945 25.92C526.646 25.5893 526.22 25.424 525.665 25.424C525.27 25.424 524.913 25.5093 524.593 25.68C524.284 25.84 524.038 26.0907 523.857 26.432C523.686 26.7733 523.601 27.2107 523.601 27.744V32H521.105V23.392H523.489V25.776L523.041 25.056C523.35 24.48 523.793 24.0373 524.369 23.728C524.945 23.4187 525.601 23.264 526.337 23.264ZM532.168 32V23.392H534.664V32H532.168ZM533.416 22.192C532.957 22.192 532.584 22.0587 532.296 21.792C532.008 21.5253 531.864 21.1947 531.864 20.8C531.864 20.4053 532.008 20.0747 532.296 19.808C532.584 19.5413 532.957 19.408 533.416 19.408C533.874 19.408 534.248 19.536 534.536 19.792C534.824 20.0373 534.968 20.3573 534.968 20.752C534.968 21.168 534.824 21.5147 534.536 21.792C534.258 22.0587 533.885 22.192 533.416 22.192ZM539.876 32.128C539.14 32.128 538.431 32.0427 537.748 31.872C537.076 31.6907 536.543 31.4667 536.148 31.2L536.98 29.408C537.375 29.6533 537.839 29.856 538.372 30.016C538.916 30.1653 539.449 30.24 539.972 30.24C540.548 30.24 540.953 30.1707 541.188 30.032C541.433 29.8933 541.556 29.7013 541.556 29.456C541.556 29.2533 541.46 29.104 541.268 29.008C541.087 28.9013 540.841 28.8213 540.532 28.768C540.223 28.7147 539.881 28.6613 539.508 28.608C539.145 28.5547 538.777 28.4853 538.404 28.4C538.031 28.304 537.689 28.1653 537.38 27.984C537.071 27.8027 536.82 27.5573 536.628 27.248C536.447 26.9387 536.356 26.5387 536.356 26.048C536.356 25.504 536.511 25.024 536.82 24.608C537.14 24.192 537.599 23.8667 538.196 23.632C538.793 23.3867 539.508 23.264 540.34 23.264C540.927 23.264 541.524 23.328 542.132 23.456C542.74 23.584 543.247 23.7707 543.652 24.016L542.82 25.792C542.404 25.5467 541.983 25.3813 541.556 25.296C541.14 25.2 540.735 25.152 540.34 25.152C539.785 25.152 539.38 25.2267 539.124 25.376C538.868 25.5253 538.74 25.7173 538.74 25.952C538.74 26.1653 538.831 26.3253 539.012 26.432C539.204 26.5387 539.455 26.624 539.764 26.688C540.073 26.752 540.409 26.8107 540.772 26.864C541.145 26.9067 541.519 26.976 541.892 27.072C542.265 27.168 542.601 27.3067 542.9 27.488C543.209 27.6587 543.46 27.8987 543.652 28.208C543.844 28.5067 543.94 28.9013 543.94 29.392C543.94 29.9253 543.78 30.4 543.46 30.816C543.14 31.2213 542.676 31.5413 542.068 31.776C541.471 32.0107 540.74 32.128 539.876 32.128ZM555.099 32.128C554.374 32.128 553.739 31.968 553.195 31.648C552.651 31.328 552.225 30.8427 551.915 30.192C551.617 29.5307 551.467 28.6987 551.467 27.696C551.467 26.6827 551.611 25.8507 551.899 25.2C552.187 24.5493 552.603 24.064 553.147 23.744C553.691 23.424 554.342 23.264 555.099 23.264C555.91 23.264 556.635 23.4507 557.275 23.824C557.926 24.1867 558.438 24.6987 558.811 25.36C559.195 26.0213 559.387 26.8 559.387 27.696C559.387 28.6027 559.195 29.3867 558.811 30.048C558.438 30.7093 557.926 31.2213 557.275 31.584C556.635 31.9467 555.91 32.128 555.099 32.128ZM550.011 35.104V23.392H552.395V25.152L552.347 27.712L552.507 30.256V35.104H550.011ZM554.667 30.08C555.083 30.08 555.451 29.984 555.771 29.792C556.102 29.6 556.363 29.328 556.555 28.976C556.758 28.6133 556.859 28.1867 556.859 27.696C556.859 27.1947 556.758 26.768 556.555 26.416C556.363 26.064 556.102 25.792 555.771 25.6C555.451 25.408 555.083 25.312 554.667 25.312C554.251 25.312 553.878 25.408 553.547 25.6C553.217 25.792 552.955 26.064 552.763 26.416C552.571 26.768 552.475 27.1947 552.475 27.696C552.475 28.1867 552.571 28.6133 552.763 28.976C552.955 29.328 553.217 29.6 553.547 29.792C553.878 29.984 554.251 30.08 554.667 30.08ZM561.058 32V20.128H563.554V32H561.058ZM569.967 32.128C569.049 32.128 568.233 31.936 567.519 31.552C566.815 31.168 566.255 30.6453 565.839 29.984C565.433 29.312 565.231 28.5493 565.231 27.696C565.231 26.832 565.433 26.0693 565.839 25.408C566.255 24.736 566.815 24.2133 567.519 23.84C568.233 23.456 569.049 23.264 569.967 23.264C570.873 23.264 571.684 23.456 572.399 23.84C573.113 24.2133 573.673 24.7307 574.079 25.392C574.484 26.0533 574.687 26.8213 574.687 27.696C574.687 28.5493 574.484 29.312 574.079 29.984C573.673 30.6453 573.113 31.168 572.399 31.552C571.684 31.936 570.873 32.128 569.967 32.128ZM569.967 30.08C570.383 30.08 570.756 29.984 571.087 29.792C571.417 29.6 571.679 29.328 571.871 28.976C572.063 28.6133 572.159 28.1867 572.159 27.696C572.159 27.1947 572.063 26.768 571.871 26.416C571.679 26.064 571.417 25.792 571.087 25.6C570.756 25.408 570.383 25.312 569.967 25.312C569.551 25.312 569.177 25.408 568.847 25.6C568.516 25.792 568.249 26.064 568.047 26.416C567.855 26.768 567.759 27.1947 567.759 27.696C567.759 28.1867 567.855 28.6133 568.047 28.976C568.249 29.328 568.516 29.6 568.847 29.792C569.177 29.984 569.551 30.08 569.967 30.08ZM579.875 32.128C578.862 32.128 578.072 31.872 577.507 31.36C576.942 30.8373 576.659 30.064 576.659 29.04V21.488H579.155V29.008C579.155 29.3707 579.251 29.6533 579.443 29.856C579.635 30.048 579.896 30.144 580.227 30.144C580.622 30.144 580.958 30.0373 581.235 29.824L581.907 31.584C581.651 31.7653 581.342 31.904 580.979 32C580.627 32.0853 580.259 32.128 579.875 32.128ZM575.331 25.504V23.584H581.299V25.504H575.331ZM588.588 32V30.32L588.428 29.952V26.944C588.428 26.4107 588.263 25.9947 587.932 25.696C587.612 25.3973 587.116 25.248 586.444 25.248C585.986 25.248 585.532 25.3227 585.084 25.472C584.647 25.6107 584.274 25.8027 583.964 26.048L583.068 24.304C583.538 23.9733 584.103 23.7173 584.764 23.536C585.426 23.3547 586.098 23.264 586.78 23.264C588.092 23.264 589.111 23.5733 589.836 24.192C590.562 24.8107 590.924 25.776 590.924 27.088V32H588.588ZM585.964 32.128C585.292 32.128 584.716 32.016 584.236 31.792C583.756 31.5573 583.388 31.2427 583.132 30.848C582.876 30.4533 582.748 30.0107 582.748 29.52C582.748 29.008 582.871 28.56 583.116 28.176C583.372 27.792 583.772 27.4933 584.316 27.28C584.86 27.056 585.57 26.944 586.444 26.944H588.732V28.4H586.716C586.13 28.4 585.724 28.496 585.5 28.688C585.287 28.88 585.18 29.12 585.18 29.408C585.18 29.728 585.303 29.984 585.548 30.176C585.804 30.3573 586.151 30.448 586.588 30.448C587.004 30.448 587.378 30.352 587.708 30.16C588.039 29.9573 588.279 29.664 588.428 29.28L588.812 30.432C588.631 30.9867 588.3 31.408 587.82 31.696C587.34 31.984 586.722 32.128 585.964 32.128ZM596.079 32.128C595.343 32.128 594.634 32.0427 593.951 31.872C593.279 31.6907 592.746 31.4667 592.351 31.2L593.183 29.408C593.578 29.6533 594.042 29.856 594.575 30.016C595.119 30.1653 595.653 30.24 596.175 30.24C596.751 30.24 597.157 30.1707 597.391 30.032C597.637 29.8933 597.759 29.7013 597.759 29.456C597.759 29.2533 597.663 29.104 597.471 29.008C597.29 28.9013 597.045 28.8213 596.735 28.768C596.426 28.7147 596.085 28.6613 595.711 28.608C595.349 28.5547 594.981 28.4853 594.607 28.4C594.234 28.304 593.893 28.1653 593.583 27.984C593.274 27.8027 593.023 27.5573 592.831 27.248C592.65 26.9387 592.559 26.5387 592.559 26.048C592.559 25.504 592.714 25.024 593.023 24.608C593.343 24.192 593.802 23.8667 594.399 23.632C594.997 23.3867 595.711 23.264 596.543 23.264C597.13 23.264 597.727 23.328 598.335 23.456C598.943 23.584 599.45 23.7707 599.855 24.016L599.023 25.792C598.607 25.5467 598.186 25.3813 597.759 25.296C597.343 25.2 596.938 25.152 596.543 25.152C595.989 25.152 595.583 25.2267 595.327 25.376C595.071 25.5253 594.943 25.7173 594.943 25.952C594.943 26.1653 595.034 26.3253 595.215 26.432C595.407 26.5387 595.658 26.624 595.967 26.688C596.277 26.752 596.613 26.8107 596.975 26.864C597.349 26.9067 597.722 26.976 598.095 27.072C598.469 27.168 598.805 27.3067 599.103 27.488C599.413 27.6587 599.663 27.8987 599.855 28.208C600.047 28.5067 600.143 28.9013 600.143 29.392C600.143 29.9253 599.983 30.4 599.663 30.816C599.343 31.2213 598.879 31.5413 598.271 31.776C597.674 32.0107 596.943 32.128 596.079 32.128ZM464.432 56V54.32L464.272 53.952V50.944C464.272 50.4107 464.107 49.9947 463.776 49.696C463.456 49.3973 462.96 49.248 462.288 49.248C461.829 49.248 461.376 49.3227 460.928 49.472C460.491 49.6107 460.117 49.8027 459.808 50.048L458.912 48.304C459.381 47.9733 459.947 47.7173 460.608 47.536C461.269 47.3547 461.941 47.264 462.624 47.264C463.936 47.264 464.955 47.5733 465.68 48.192C466.405 48.8107 466.768 49.776 466.768 51.088V56H464.432ZM461.808 56.128C461.136 56.128 460.56 56.016 460.08 55.792C459.6 55.5573 459.232 55.2427 458.976 54.848C458.72 54.4533 458.592 54.0107 458.592 53.52C458.592 53.008 458.715 52.56 458.96 52.176C459.216 51.792 459.616 51.4933 460.16 51.28C460.704 51.056 461.413 50.944 462.288 50.944H464.576V52.4H462.56C461.973 52.4 461.568 52.496 461.344 52.688C461.131 52.88 461.024 53.12 461.024 53.408C461.024 53.728 461.147 53.984 461.392 54.176C461.648 54.3573 461.995 54.448 462.432 54.448C462.848 54.448 463.221 54.352 463.552 54.16C463.883 53.9573 464.123 53.664 464.272 53.28L464.656 54.432C464.475 54.9867 464.144 55.408 463.664 55.696C463.184 55.984 462.565 56.128 461.808 56.128ZM474.259 47.264C474.942 47.264 475.55 47.4027 476.083 47.68C476.627 47.9467 477.054 48.3627 477.363 48.928C477.672 49.4827 477.827 50.1973 477.827 51.072V56H475.331V51.456C475.331 50.7627 475.176 50.2507 474.867 49.92C474.568 49.5893 474.142 49.424 473.587 49.424C473.192 49.424 472.835 49.5093 472.515 49.68C472.206 49.84 471.96 50.0907 471.779 50.432C471.608 50.7733 471.523 51.2107 471.523 51.744V56H469.027V47.392H471.411V49.776L470.963 49.056C471.272 48.48 471.715 48.0373 472.291 47.728C472.867 47.4187 473.523 47.264 474.259 47.264ZM483.61 56.128C482.596 56.128 481.807 55.872 481.242 55.36C480.676 54.8373 480.394 54.064 480.394 53.04V45.488H482.89V53.008C482.89 53.3707 482.986 53.6533 483.178 53.856C483.37 54.048 483.631 54.144 483.962 54.144C484.356 54.144 484.692 54.0373 484.97 53.824L485.642 55.584C485.386 55.7653 485.076 55.904 484.714 56C484.362 56.0853 483.994 56.128 483.61 56.128ZM479.066 49.504V47.584H485.034V49.504H479.066ZM487.043 56V47.392H489.427V49.824L489.091 49.12C489.347 48.512 489.757 48.0533 490.323 47.744C490.888 47.424 491.576 47.264 492.387 47.264V49.568C492.28 49.5573 492.184 49.552 492.099 49.552C492.013 49.5413 491.923 49.536 491.827 49.536C491.144 49.536 490.589 49.7333 490.163 50.128C489.747 50.512 489.539 51.1147 489.539 51.936V56H487.043ZM498.08 56.128C497.099 56.128 496.235 55.936 495.488 55.552C494.752 55.168 494.182 54.6453 493.776 53.984C493.371 53.312 493.168 52.5493 493.168 51.696C493.168 50.832 493.366 50.0693 493.76 49.408C494.166 48.736 494.715 48.2133 495.408 47.84C496.102 47.456 496.886 47.264 497.76 47.264C498.603 47.264 499.36 47.4453 500.032 47.808C500.715 48.16 501.254 48.672 501.648 49.344C502.043 50.0053 502.24 50.8 502.24 51.728C502.24 51.824 502.235 51.936 502.224 52.064C502.214 52.1813 502.203 52.2933 502.192 52.4H495.2V50.944H500.88L499.92 51.376C499.92 50.928 499.83 50.5387 499.648 50.208C499.467 49.8773 499.216 49.6213 498.896 49.44C498.576 49.248 498.203 49.152 497.776 49.152C497.35 49.152 496.971 49.248 496.64 49.44C496.32 49.6213 496.07 49.8827 495.888 50.224C495.707 50.5547 495.616 50.9493 495.616 51.408V51.792C495.616 52.2613 495.718 52.6773 495.92 53.04C496.134 53.392 496.427 53.664 496.8 53.856C497.184 54.0373 497.632 54.128 498.144 54.128C498.603 54.128 499.003 54.0587 499.344 53.92C499.696 53.7813 500.016 53.5733 500.304 53.296L501.632 54.736C501.238 55.184 500.742 55.5307 500.144 55.776C499.547 56.0107 498.859 56.128 498.08 56.128ZM506.798 56.128C506.062 56.128 505.353 56.0427 504.67 55.872C503.998 55.6907 503.465 55.4667 503.07 55.2L503.902 53.408C504.297 53.6533 504.761 53.856 505.294 54.016C505.838 54.1653 506.371 54.24 506.894 54.24C507.47 54.24 507.875 54.1707 508.11 54.032C508.355 53.8933 508.478 53.7013 508.478 53.456C508.478 53.2533 508.382 53.104 508.19 53.008C508.009 52.9013 507.763 52.8213 507.454 52.768C507.145 52.7147 506.803 52.6613 506.43 52.608C506.067 52.5547 505.699 52.4853 505.326 52.4C504.953 52.304 504.611 52.1653 504.302 51.984C503.993 51.8027 503.742 51.5573 503.55 51.248C503.369 50.9387 503.278 50.5387 503.278 50.048C503.278 49.504 503.433 49.024 503.742 48.608C504.062 48.192 504.521 47.8667 505.118 47.632C505.715 47.3867 506.43 47.264 507.262 47.264C507.849 47.264 508.446 47.328 509.054 47.456C509.662 47.584 510.169 47.7707 510.574 48.016L509.742 49.792C509.326 49.5467 508.905 49.3813 508.478 49.296C508.062 49.2 507.657 49.152 507.262 49.152C506.707 49.152 506.302 49.2267 506.046 49.376C505.79 49.5253 505.662 49.7173 505.662 49.952C505.662 50.1653 505.753 50.3253 505.934 50.432C506.126 50.5387 506.377 50.624 506.686 50.688C506.995 50.752 507.331 50.8107 507.694 50.864C508.067 50.9067 508.441 50.976 508.814 51.072C509.187 51.168 509.523 51.3067 509.822 51.488C510.131 51.6587 510.382 51.8987 510.574 52.208C510.766 52.5067 510.862 52.9013 510.862 53.392C510.862 53.9253 510.702 54.4 510.382 54.816C510.062 55.2213 509.598 55.5413 508.99 55.776C508.393 56.0107 507.662 56.128 506.798 56.128ZM516.498 56.128C515.581 56.128 514.765 55.936 514.05 55.552C513.346 55.168 512.786 54.6453 512.37 53.984C511.965 53.312 511.762 52.5493 511.762 51.696C511.762 50.832 511.965 50.0693 512.37 49.408C512.786 48.736 513.346 48.2133 514.05 47.84C514.765 47.456 515.581 47.264 516.498 47.264C517.405 47.264 518.215 47.456 518.93 47.84C519.645 48.2133 520.205 48.7307 520.61 49.392C521.015 50.0533 521.218 50.8213 521.218 51.696C521.218 52.5493 521.015 53.312 520.61 53.984C520.205 54.6453 519.645 55.168 518.93 55.552C518.215 55.936 517.405 56.128 516.498 56.128ZM516.498 54.08C516.914 54.08 517.287 53.984 517.618 53.792C517.949 53.6 518.21 53.328 518.402 52.976C518.594 52.6133 518.69 52.1867 518.69 51.696C518.69 51.1947 518.594 50.768 518.402 50.416C518.21 50.064 517.949 49.792 517.618 49.6C517.287 49.408 516.914 49.312 516.498 49.312C516.082 49.312 515.709 49.408 515.378 49.6C515.047 49.792 514.781 50.064 514.578 50.416C514.386 50.768 514.29 51.1947 514.29 51.696C514.29 52.1867 514.386 52.6133 514.578 52.976C514.781 53.328 515.047 53.6 515.378 53.792C515.709 53.984 516.082 54.08 516.498 54.08ZM522.886 56V44.128H525.382V56H522.886ZM531.971 56.128C530.99 56.128 530.126 55.936 529.379 55.552C528.643 55.168 528.072 54.6453 527.667 53.984C527.262 53.312 527.059 52.5493 527.059 51.696C527.059 50.832 527.256 50.0693 527.651 49.408C528.056 48.736 528.606 48.2133 529.299 47.84C529.992 47.456 530.776 47.264 531.651 47.264C532.494 47.264 533.251 47.4453 533.923 47.808C534.606 48.16 535.144 48.672 535.539 49.344C535.934 50.0053 536.131 50.8 536.131 51.728C536.131 51.824 536.126 51.936 536.115 52.064C536.104 52.1813 536.094 52.2933 536.083 52.4H529.091V50.944H534.771L533.811 51.376C533.811 50.928 533.72 50.5387 533.539 50.208C533.358 49.8773 533.107 49.6213 532.787 49.44C532.467 49.248 532.094 49.152 531.667 49.152C531.24 49.152 530.862 49.248 530.531 49.44C530.211 49.6213 529.96 49.8827 529.779 50.224C529.598 50.5547 529.507 50.9493 529.507 51.408V51.792C529.507 52.2613 529.608 52.6773 529.811 53.04C530.024 53.392 530.318 53.664 530.691 53.856C531.075 54.0373 531.523 54.128 532.035 54.128C532.494 54.128 532.894 54.0587 533.235 53.92C533.587 53.7813 533.907 53.5733 534.195 53.296L535.523 54.736C535.128 55.184 534.632 55.5307 534.035 55.776C533.438 56.0107 532.75 56.128 531.971 56.128ZM531.603 46.208C531.208 46.208 530.883 46.08 530.627 45.824C530.382 45.568 530.259 45.2427 530.259 44.848C530.259 44.464 530.382 44.144 530.627 43.888C530.883 43.632 531.208 43.504 531.603 43.504C531.987 43.504 532.307 43.632 532.563 43.888C532.819 44.144 532.947 44.464 532.947 44.848C532.947 45.2427 532.819 45.568 532.563 45.824C532.307 46.08 531.987 46.208 531.603 46.208ZM540.689 56.128C539.953 56.128 539.243 56.0427 538.561 55.872C537.889 55.6907 537.355 55.4667 536.961 55.2L537.793 53.408C538.187 53.6533 538.651 53.856 539.185 54.016C539.729 54.1653 540.262 54.24 540.785 54.24C541.361 54.24 541.766 54.1707 542.001 54.032C542.246 53.8933 542.369 53.7013 542.369 53.456C542.369 53.2533 542.273 53.104 542.081 53.008C541.899 52.9013 541.654 52.8213 541.345 52.768C541.035 52.7147 540.694 52.6613 540.321 52.608C539.958 52.5547 539.59 52.4853 539.217 52.4C538.843 52.304 538.502 52.1653 538.193 51.984C537.883 51.8027 537.633 51.5573 537.441 51.248C537.259 50.9387 537.169 50.5387 537.169 50.048C537.169 49.504 537.323 49.024 537.633 48.608C537.953 48.192 538.411 47.8667 539.009 47.632C539.606 47.3867 540.321 47.264 541.153 47.264C541.739 47.264 542.337 47.328 542.945 47.456C543.553 47.584 544.059 47.7707 544.465 48.016L543.633 49.792C543.217 49.5467 542.795 49.3813 542.369 49.296C541.953 49.2 541.547 49.152 541.153 49.152C540.598 49.152 540.193 49.2267 539.937 49.376C539.681 49.5253 539.553 49.7173 539.553 49.952C539.553 50.1653 539.643 50.3253 539.825 50.432C540.017 50.5387 540.267 50.624 540.577 50.688C540.886 50.752 541.222 50.8107 541.585 50.864C541.958 50.9067 542.331 50.976 542.705 51.072C543.078 51.168 543.414 51.3067 543.713 51.488C544.022 51.6587 544.273 51.8987 544.465 52.208C544.657 52.5067 544.753 52.9013 544.753 53.392C544.753 53.9253 544.593 54.4 544.273 54.816C543.953 55.2213 543.489 55.5413 542.881 55.776C542.283 56.0107 541.553 56.128 540.689 56.128ZM550.565 56.128C549.583 56.128 548.719 55.936 547.973 55.552C547.237 55.168 546.666 54.6453 546.261 53.984C545.855 53.312 545.653 52.5493 545.653 51.696C545.653 50.832 545.85 50.0693 546.245 49.408C546.65 48.736 547.199 48.2133 547.893 47.84C548.586 47.456 549.37 47.264 550.245 47.264C551.087 47.264 551.845 47.4453 552.517 47.808C553.199 48.16 553.738 48.672 554.133 49.344C554.527 50.0053 554.725 50.8 554.725 51.728C554.725 51.824 554.719 51.936 554.709 52.064C554.698 52.1813 554.687 52.2933 554.677 52.4H547.685V50.944H553.365L552.405 51.376C552.405 50.928 552.314 50.5387 552.133 50.208C551.951 49.8773 551.701 49.6213 551.381 49.44C551.061 49.248 550.687 49.152 550.261 49.152C549.834 49.152 549.455 49.248 549.125 49.44C548.805 49.6213 548.554 49.8827 548.373 50.224C548.191 50.5547 548.101 50.9493 548.101 51.408V51.792C548.101 52.2613 548.202 52.6773 548.405 53.04C548.618 53.392 548.911 53.664 549.285 53.856C549.669 54.0373 550.117 54.128 550.629 54.128C551.087 54.128 551.487 54.0587 551.829 53.92C552.181 53.7813 552.501 53.5733 552.789 53.296L554.117 54.736C553.722 55.184 553.226 55.5307 552.629 55.776C552.031 56.0107 551.343 56.128 550.565 56.128ZM555.954 58.464L557.01 54.624L557.362 56.064C556.904 56.064 556.525 55.9307 556.226 55.664C555.938 55.3973 555.794 55.0293 555.794 54.56C555.794 54.0907 555.944 53.7173 556.242 53.44C556.541 53.1627 556.909 53.024 557.346 53.024C557.794 53.024 558.162 53.168 558.45 53.456C558.738 53.7333 558.882 54.1013 558.882 54.56C558.882 54.6987 558.872 54.8373 558.85 54.976C558.829 55.104 558.786 55.264 558.722 55.456C558.669 55.6373 558.578 55.872 558.45 56.16L557.538 58.464H555.954ZM567.169 54.24L567.233 51.2L571.249 47.392H574.225L570.369 51.312L569.073 52.368L567.169 54.24ZM565.105 56V44.128H567.601V56H565.105ZM571.521 56L568.609 52.384L570.177 50.448L574.545 56H571.521ZM577.488 56L573.872 47.392H576.448L579.456 54.8H578.176L581.296 47.392H583.696L580.064 56H577.488ZM585.143 56.128C584.716 56.128 584.348 55.984 584.039 55.696C583.74 55.3973 583.591 55.0187 583.591 54.56C583.591 54.1013 583.74 53.7333 584.039 53.456C584.348 53.168 584.716 53.024 585.143 53.024C585.58 53.024 585.948 53.168 586.247 53.456C586.546 53.7333 586.695 54.1013 586.695 54.56C586.695 55.0187 586.546 55.3973 586.247 55.696C585.948 55.984 585.58 56.128 585.143 56.128ZM470.176 71.264C470.859 71.264 471.461 71.4027 471.984 71.68C472.517 71.9467 472.933 72.3627 473.232 72.928C473.541 73.4827 473.696 74.1973 473.696 75.072V80H471.2V75.456C471.2 74.7627 471.056 74.2507 470.768 73.92C470.48 73.5893 470.075 73.424 469.552 73.424C469.189 73.424 468.864 73.5093 468.576 73.68C468.288 73.84 468.064 74.0853 467.904 74.416C467.744 74.7467 467.664 75.168 467.664 75.68V80H465.168V75.456C465.168 74.7627 465.024 74.2507 464.736 73.92C464.459 73.5893 464.059 73.424 463.536 73.424C463.173 73.424 462.848 73.5093 462.56 73.68C462.272 73.84 462.048 74.0853 461.888 74.416C461.728 74.7467 461.648 75.168 461.648 75.68V80H459.152V71.392H461.536V73.744L461.088 73.056C461.387 72.4693 461.808 72.0267 462.352 71.728C462.907 71.4187 463.536 71.264 464.24 71.264C465.029 71.264 465.717 71.4667 466.304 71.872C466.901 72.2667 467.296 72.8747 467.488 73.696L466.608 73.456C466.896 72.784 467.355 72.2507 467.984 71.856C468.624 71.4613 469.355 71.264 470.176 71.264Z" fill="#333333"/>
<mask id="path-6-outside-2_2_118" maskUnits="userSpaceOnUse" x="0" y="98" width="648" height="49" fill="black">
<rect fill="white" y="98" width="648" height="49"/>
<path d="M0 98H648V146H0V98Z"/>
</mask>
<path d="M648 145H0V147H648V145Z" fill="#999999" mask="url(#path-6-outside-2_2_118)"/>
<path d="M41.68 128V116.8H46.704C47.9947 116.8 48.9867 117.061 49.68 117.584C50.3733 118.096 50.72 118.8 50.72 119.696C50.72 120.304 50.5813 120.816 50.304 121.232C50.0373 121.648 49.6747 121.968 49.216 122.192C48.7573 122.416 48.2613 122.528 47.728 122.528L48.016 122.048C48.656 122.048 49.2213 122.16 49.712 122.384C50.2027 122.608 50.592 122.939 50.88 123.376C51.168 123.803 51.312 124.336 51.312 124.976C51.312 125.936 50.9493 126.683 50.224 127.216C49.5093 127.739 48.4427 128 47.024 128H41.68ZM43.28 126.704H46.96C47.8453 126.704 48.5227 126.555 48.992 126.256C49.4613 125.957 49.696 125.488 49.696 124.848C49.696 124.197 49.4613 123.723 48.992 123.424C48.5227 123.125 47.8453 122.976 46.96 122.976H43.136V121.68H46.56C47.3707 121.68 48 121.531 48.448 121.232C48.896 120.933 49.12 120.485 49.12 119.888C49.12 119.291 48.896 118.843 48.448 118.544C48 118.245 47.3707 118.096 46.56 118.096H43.28V126.704Z" fill="#666666"/>
<path d="M287.4 116.672C288.413 116.672 289.267 116.891 289.96 117.328C290.664 117.765 291.197 118.4 291.56 119.232C291.923 120.053 292.104 121.061 292.104 122.256C292.104 123.525 291.88 124.597 291.432 125.472C290.984 126.347 290.365 127.008 289.576 127.456C288.787 127.904 287.864 128.128 286.808 128.128C286.285 128.128 285.779 128.075 285.288 127.968C284.808 127.861 284.387 127.696 284.024 127.472L284.632 126.224C284.931 126.416 285.261 126.555 285.624 126.64C285.997 126.715 286.387 126.752 286.792 126.752C287.923 126.752 288.824 126.4 289.496 125.696C290.168 124.981 290.504 123.925 290.504 122.528C290.504 122.304 290.493 122.037 290.472 121.728C290.451 121.419 290.403 121.115 290.328 120.816L290.856 121.36C290.707 121.851 290.456 122.267 290.104 122.608C289.763 122.939 289.347 123.189 288.856 123.36C288.376 123.52 287.848 123.6 287.272 123.6C286.536 123.6 285.88 123.461 285.304 123.184C284.728 122.907 284.275 122.517 283.944 122.016C283.613 121.504 283.448 120.901 283.448 120.208C283.448 119.483 283.619 118.859 283.96 118.336C284.312 117.803 284.787 117.392 285.384 117.104C285.992 116.816 286.664 116.672 287.4 116.672ZM287.464 117.968C286.984 117.968 286.557 118.059 286.184 118.24C285.811 118.421 285.517 118.672 285.304 118.992C285.101 119.312 285 119.696 285 120.144C285 120.805 285.229 121.333 285.688 121.728C286.147 122.112 286.765 122.304 287.544 122.304C288.056 122.304 288.504 122.208 288.888 122.016C289.283 121.824 289.587 121.563 289.8 121.232C290.024 120.901 290.136 120.533 290.136 120.128C290.136 119.733 290.035 119.376 289.832 119.056C289.629 118.736 289.331 118.475 288.936 118.272C288.541 118.069 288.051 117.968 287.464 117.968ZM293.467 128V126.912L298.027 122.512C298.432 122.128 298.731 121.792 298.923 121.504C299.126 121.205 299.259 120.933 299.323 120.688C299.398 120.432 299.435 120.187 299.435 119.952C299.435 119.376 299.232 118.923 298.827 118.592C298.422 118.261 297.83 118.096 297.051 118.096C296.454 118.096 295.915 118.197 295.435 118.4C294.955 118.592 294.539 118.896 294.187 119.312L293.099 118.368C293.526 117.824 294.096 117.408 294.811 117.12C295.536 116.821 296.331 116.672 297.195 116.672C297.974 116.672 298.651 116.8 299.227 117.056C299.803 117.301 300.246 117.659 300.555 118.128C300.875 118.597 301.035 119.152 301.035 119.792C301.035 120.155 300.987 120.512 300.891 120.864C300.795 121.216 300.614 121.589 300.347 121.984C300.08 122.379 299.696 122.821 299.195 123.312L295.131 127.232L294.747 126.608H301.515V128H293.467ZM303.067 130.368L303.867 127.136L304.075 128.064C303.765 128.064 303.504 127.968 303.291 127.776C303.088 127.584 302.987 127.323 302.987 126.992C302.987 126.672 303.088 126.411 303.291 126.208C303.504 126.005 303.76 125.904 304.059 125.904C304.368 125.904 304.619 126.011 304.811 126.224C305.003 126.427 305.099 126.683 305.099 126.992C305.099 127.099 305.088 127.205 305.067 127.312C305.056 127.408 305.029 127.525 304.987 127.664C304.955 127.792 304.901 127.952 304.827 128.144L304.075 130.368H303.067ZM310.244 116.672C311.257 116.672 312.11 116.891 312.804 117.328C313.508 117.765 314.041 118.4 314.404 119.232C314.766 120.053 314.948 121.061 314.948 122.256C314.948 123.525 314.724 124.597 314.276 125.472C313.828 126.347 313.209 127.008 312.42 127.456C311.63 127.904 310.708 128.128 309.652 128.128C309.129 128.128 308.622 128.075 308.132 127.968C307.652 127.861 307.23 127.696 306.868 127.472L307.476 126.224C307.774 126.416 308.105 126.555 308.468 126.64C308.841 126.715 309.23 126.752 309.636 126.752C310.766 126.752 311.668 126.4 312.34 125.696C313.012 124.981 313.348 123.925 313.348 122.528C313.348 122.304 313.337 122.037 313.316 121.728C313.294 121.419 313.246 121.115 313.172 120.816L313.7 121.36C313.55 121.851 313.3 122.267 312.948 122.608C312.606 122.939 312.19 123.189 311.7 123.36C311.22 123.52 310.692 123.6 310.116 123.6C309.38 123.6 308.724 123.461 308.148 123.184C307.572 122.907 307.118 122.517 306.788 122.016C306.457 121.504 306.292 120.901 306.292 120.208C306.292 119.483 306.462 118.859 306.804 118.336C307.156 117.803 307.63 117.392 308.228 117.104C308.836 116.816 309.508 116.672 310.244 116.672ZM310.308 117.968C309.828 117.968 309.401 118.059 309.028 118.24C308.654 118.421 308.361 118.672 308.148 118.992C307.945 119.312 307.844 119.696 307.844 120.144C307.844 120.805 308.073 121.333 308.532 121.728C308.99 122.112 309.609 122.304 310.388 122.304C310.9 122.304 311.348 122.208 311.732 122.016C312.126 121.824 312.43 121.563 312.644 121.232C312.868 120.901 312.98 120.533 312.98 120.128C312.98 119.733 312.878 119.376 312.676 119.056C312.473 118.736 312.174 118.475 311.78 118.272C311.385 118.069 310.894 117.968 310.308 117.968ZM316.311 128V126.912L320.871 122.512C321.276 122.128 321.575 121.792 321.767 121.504C321.969 121.205 322.103 120.933 322.167 120.688C322.241 120.432 322.279 120.187 322.279 119.952C322.279 119.376 322.076 118.923 321.671 118.592C321.265 118.261 320.673 118.096 319.895 118.096C319.297 118.096 318.759 118.197 318.279 118.4C317.799 118.592 317.383 118.896 317.031 119.312L315.943 118.368C316.369 117.824 316.94 117.408 317.655 117.12C318.38 116.821 319.175 116.672 320.039 116.672C320.817 116.672 321.495 116.8 322.071 117.056C322.647 117.301 323.089 117.659 323.399 118.128C323.719 118.597 323.879 119.152 323.879 119.792C323.879 120.155 323.831 120.512 323.735 120.864C323.639 121.216 323.457 121.589 323.191 121.984C322.924 122.379 322.54 122.821 322.039 123.312L317.975 127.232L317.591 126.608H324.359V128H316.311Z" fill="#666666"/>
<path d="M559.384 128.128C558.595 128.128 557.827 128.005 557.08 127.76C556.344 127.515 555.741 127.184 555.272 126.768L556.008 125.504C556.381 125.856 556.867 126.144 557.464 126.368C558.061 126.592 558.696 126.704 559.368 126.704C560.221 126.704 560.877 126.523 561.336 126.16C561.795 125.797 562.024 125.312 562.024 124.704C562.024 124.288 561.923 123.925 561.72 123.616C561.517 123.307 561.165 123.072 560.664 122.912C560.173 122.741 559.496 122.656 558.632 122.656H556.088L556.68 116.8H563V118.192H557.272L558.104 117.408L557.64 122.032L556.808 121.264H558.968C560.088 121.264 560.989 121.408 561.672 121.696C562.355 121.984 562.851 122.384 563.16 122.896C563.469 123.397 563.624 123.979 563.624 124.64C563.624 125.28 563.469 125.867 563.16 126.4C562.851 126.923 562.381 127.344 561.752 127.664C561.133 127.973 560.344 128.128 559.384 128.128ZM566.688 128L571.44 117.472L571.856 118.192H565.2L566 117.408V120.192H564.464V116.8H572.912V117.888L568.384 128H566.688ZM578.402 128.128C577.495 128.128 576.711 127.995 576.05 127.728C575.388 127.461 574.876 127.083 574.514 126.592C574.151 126.091 573.97 125.504 573.97 124.832C573.97 124.171 574.14 123.611 574.482 123.152C574.834 122.683 575.34 122.331 576.002 122.096C576.663 121.851 577.463 121.728 578.402 121.728C579.34 121.728 580.14 121.851 580.802 122.096C581.474 122.331 581.986 122.683 582.338 123.152C582.69 123.621 582.866 124.181 582.866 124.832C582.866 125.504 582.684 126.091 582.322 126.592C581.959 127.083 581.442 127.461 580.77 127.728C580.098 127.995 579.308 128.128 578.402 128.128ZM578.402 126.832C579.298 126.832 579.996 126.651 580.498 126.288C581.01 125.915 581.266 125.413 581.266 124.784C581.266 124.165 581.01 123.68 580.498 123.328C579.996 122.965 579.298 122.784 578.402 122.784C577.516 122.784 576.823 122.965 576.322 123.328C575.82 123.68 575.57 124.165 575.57 124.784C575.57 125.413 575.82 125.915 576.322 126.288C576.823 126.651 577.516 126.832 578.402 126.832ZM578.402 122.592C577.548 122.592 576.823 122.48 576.226 122.256C575.628 122.021 575.17 121.691 574.85 121.264C574.53 120.827 574.37 120.309 574.37 119.712C574.37 119.083 574.535 118.544 574.866 118.096C575.207 117.637 575.682 117.285 576.29 117.04C576.898 116.795 577.602 116.672 578.402 116.672C579.212 116.672 579.922 116.795 580.53 117.04C581.138 117.285 581.612 117.637 581.954 118.096C582.295 118.544 582.466 119.083 582.466 119.712C582.466 120.309 582.306 120.827 581.986 121.264C581.666 121.691 581.202 122.021 580.594 122.256C579.986 122.48 579.255 122.592 578.402 122.592ZM578.402 121.568C579.18 121.568 579.788 121.408 580.226 121.088C580.674 120.768 580.898 120.331 580.898 119.776C580.898 119.211 580.668 118.768 580.21 118.448C579.751 118.128 579.148 117.968 578.402 117.968C577.655 117.968 577.058 118.128 576.61 118.448C576.172 118.768 575.954 119.211 575.954 119.776C575.954 120.331 576.167 120.768 576.594 121.088C577.031 121.408 577.634 121.568 578.402 121.568ZM584.567 130.368L585.367 127.136L585.575 128.064C585.265 128.064 585.004 127.968 584.791 127.776C584.588 127.584 584.487 127.323 584.487 126.992C584.487 126.672 584.588 126.411 584.791 126.208C585.004 126.005 585.26 125.904 585.559 125.904C585.868 125.904 586.119 126.011 586.311 126.224C586.503 126.427 586.599 126.683 586.599 126.992C586.599 127.099 586.588 127.205 586.567 127.312C586.556 127.408 586.529 127.525 586.487 127.664C586.455 127.792 586.401 127.952 586.327 128.144L585.575 130.368H584.567ZM591.728 128.128C590.938 128.128 590.17 128.005 589.424 127.76C588.688 127.515 588.085 127.184 587.616 126.768L588.352 125.504C588.725 125.856 589.21 126.144 589.808 126.368C590.405 126.592 591.04 126.704 591.712 126.704C592.565 126.704 593.221 126.523 593.68 126.16C594.138 125.797 594.368 125.312 594.368 124.704C594.368 124.288 594.266 123.925 594.064 123.616C593.861 123.307 593.509 123.072 593.008 122.912C592.517 122.741 591.84 122.656 590.976 122.656H588.432L589.024 116.8H595.344V118.192H589.616L590.448 117.408L589.984 122.032L589.152 121.264H591.312C592.432 121.264 593.333 121.408 594.016 121.696C594.698 121.984 595.194 122.384 595.504 122.896C595.813 123.397 595.968 123.979 595.968 124.64C595.968 125.28 595.813 125.867 595.504 126.4C595.194 126.923 594.725 127.344 594.096 127.664C593.477 127.973 592.688 128.128 591.728 128.128ZM601.875 128.128C601.001 128.128 600.217 127.904 599.523 127.456C598.841 127.008 598.297 126.357 597.891 125.504C597.497 124.651 597.299 123.616 597.299 122.4C597.299 121.184 597.497 120.149 597.891 119.296C598.297 118.443 598.841 117.792 599.523 117.344C600.217 116.896 601.001 116.672 601.875 116.672C602.739 116.672 603.518 116.896 604.211 117.344C604.905 117.792 605.449 118.443 605.843 119.296C606.238 120.149 606.435 121.184 606.435 122.4C606.435 123.616 606.238 124.651 605.843 125.504C605.449 126.357 604.905 127.008 604.211 127.456C603.518 127.904 602.739 128.128 601.875 128.128ZM601.875 126.704C602.462 126.704 602.974 126.544 603.411 126.224C603.859 125.904 604.206 125.424 604.451 124.784C604.707 124.144 604.835 123.349 604.835 122.4C604.835 121.451 604.707 120.656 604.451 120.016C604.206 119.376 603.859 118.896 603.411 118.576C602.974 118.256 602.462 118.096 601.875 118.096C601.289 118.096 600.771 118.256 600.323 118.576C599.875 118.896 599.523 119.376 599.267 120.016C599.022 120.656 598.899 121.451 598.899 122.4C598.899 123.349 599.022 124.144 599.267 124.784C599.523 125.424 599.875 125.904 600.323 126.224C600.771 126.544 601.289 126.704 601.875 126.704Z" fill="#666666"/>
<mask id="path-11-outside-3_2_118" maskUnits="userSpaceOnUse" x="0" y="146" width="648" height="49" fill="black">
<rect fill="white" y="146" width="648" height="49"/>
<path d="M0 146H648V194H0V146Z"/>
</mask>
<path d="M648 193H0V195H648V193Z" fill="#999999" mask="url(#path-11-outside-3_2_118)"/>
<path d="M46.688 176.128C45.8347 176.128 45.0453 175.989 44.32 175.712C43.6053 175.424 42.9813 175.024 42.448 174.512C41.9253 173.989 41.5147 173.381 41.216 172.688C40.9173 171.995 40.768 171.232 40.768 170.4C40.768 169.568 40.9173 168.805 41.216 168.112C41.5147 167.419 41.9307 166.816 42.464 166.304C42.9973 165.781 43.6213 165.381 44.336 165.104C45.0613 164.816 45.8507 164.672 46.704 164.672C47.568 164.672 48.3627 164.821 49.088 165.12C49.824 165.408 50.448 165.84 50.96 166.416L49.92 167.424C49.4933 166.976 49.0133 166.645 48.48 166.432C47.9467 166.208 47.376 166.096 46.768 166.096C46.1387 166.096 45.552 166.203 45.008 166.416C44.4747 166.629 44.0107 166.928 43.616 167.312C43.2213 167.696 42.912 168.155 42.688 168.688C42.4747 169.211 42.368 169.781 42.368 170.4C42.368 171.019 42.4747 171.595 42.688 172.128C42.912 172.651 43.2213 173.104 43.616 173.488C44.0107 173.872 44.4747 174.171 45.008 174.384C45.552 174.597 46.1387 174.704 46.768 174.704C47.376 174.704 47.9467 174.597 48.48 174.384C49.0133 174.16 49.4933 173.819 49.92 173.36L50.96 174.368C50.448 174.944 49.824 175.381 49.088 175.68C48.3627 175.979 47.5627 176.128 46.688 176.128Z" fill="#666666"/>
<path d="M282.656 176V165.44L283.344 166.192H280.128V164.8H284.24V176H282.656ZM290.306 176.128C289.517 176.128 288.749 176.005 288.002 175.76C287.266 175.515 286.663 175.184 286.194 174.768L286.93 173.504C287.303 173.856 287.789 174.144 288.386 174.368C288.983 174.592 289.618 174.704 290.29 174.704C291.143 174.704 291.799 174.523 292.258 174.16C292.717 173.797 292.946 173.312 292.946 172.704C292.946 172.288 292.845 171.925 292.642 171.616C292.439 171.307 292.087 171.072 291.586 170.912C291.095 170.741 290.418 170.656 289.554 170.656H287.01L287.602 164.8H293.922V166.192H288.194L289.026 165.408L288.562 170.032L287.73 169.264H289.89C291.01 169.264 291.911 169.408 292.594 169.696C293.277 169.984 293.773 170.384 294.082 170.896C294.391 171.397 294.546 171.979 294.546 172.64C294.546 173.28 294.391 173.867 294.082 174.4C293.773 174.923 293.303 175.344 292.674 175.664C292.055 175.973 291.266 176.128 290.306 176.128ZM297.765 176V165.44L298.453 166.192H295.237V164.8H299.349V176H297.765ZM301.879 178.368L302.679 175.136L302.887 176.064C302.578 176.064 302.317 175.968 302.103 175.776C301.901 175.584 301.799 175.323 301.799 174.992C301.799 174.672 301.901 174.411 302.103 174.208C302.317 174.005 302.573 173.904 302.871 173.904C303.181 173.904 303.431 174.011 303.623 174.224C303.815 174.427 303.911 174.683 303.911 174.992C303.911 175.099 303.901 175.205 303.879 175.312C303.869 175.408 303.842 175.525 303.799 175.664C303.767 175.792 303.714 175.952 303.639 176.144L302.887 178.368H301.879ZM309.813 176.128C308.938 176.128 308.154 175.904 307.461 175.456C306.778 175.008 306.234 174.357 305.829 173.504C305.434 172.651 305.237 171.616 305.237 170.4C305.237 169.184 305.434 168.149 305.829 167.296C306.234 166.443 306.778 165.792 307.461 165.344C308.154 164.896 308.938 164.672 309.813 164.672C310.677 164.672 311.455 164.896 312.149 165.344C312.842 165.792 313.386 166.443 313.781 167.296C314.175 168.149 314.373 169.184 314.373 170.4C314.373 171.616 314.175 172.651 313.781 173.504C313.386 174.357 312.842 175.008 312.149 175.456C311.455 175.904 310.677 176.128 309.813 176.128ZM309.813 174.704C310.399 174.704 310.911 174.544 311.349 174.224C311.797 173.904 312.143 173.424 312.389 172.784C312.645 172.144 312.773 171.349 312.773 170.4C312.773 169.451 312.645 168.656 312.389 168.016C312.143 167.376 311.797 166.896 311.349 166.576C310.911 166.256 310.399 166.096 309.813 166.096C309.226 166.096 308.709 166.256 308.261 166.576C307.813 166.896 307.461 167.376 307.205 168.016C306.959 168.656 306.837 169.451 306.837 170.4C306.837 171.349 306.959 172.144 307.205 172.784C307.461 173.424 307.813 173.904 308.261 174.224C308.709 174.544 309.226 174.704 309.813 174.704ZM315.749 173.248V172.128L321.477 164.8H323.205L317.525 172.128L316.709 171.872H325.653V173.248H315.749ZM321.973 176V173.248L322.021 171.872V169.44H323.525V176H321.973Z" fill="#666666"/>
<path d="M558.192 176.128C557.403 176.128 556.635 176.005 555.888 175.76C555.152 175.515 554.549 175.184 554.08 174.768L554.816 173.504C555.189 173.856 555.675 174.144 556.272 174.368C556.869 174.592 557.509 174.704 558.192 174.704C559.024 174.704 559.669 174.528 560.128 174.176C560.597 173.813 560.832 173.328 560.832 172.72C560.832 172.133 560.608 171.664 560.16 171.312C559.723 170.949 559.024 170.768 558.064 170.768H557.168V169.648L560.496 165.552L560.72 166.192H554.592V164.8H561.984V165.888L558.672 169.968L557.84 169.472H558.368C559.723 169.472 560.736 169.776 561.408 170.384C562.091 170.992 562.432 171.765 562.432 172.704C562.432 173.333 562.277 173.909 561.968 174.432C561.659 174.955 561.189 175.371 560.56 175.68C559.941 175.979 559.152 176.128 558.192 176.128ZM567.556 164.672C568.57 164.672 569.423 164.891 570.116 165.328C570.82 165.765 571.354 166.4 571.716 167.232C572.079 168.053 572.26 169.061 572.26 170.256C572.26 171.525 572.036 172.597 571.588 173.472C571.14 174.347 570.522 175.008 569.732 175.456C568.943 175.904 568.02 176.128 566.964 176.128C566.442 176.128 565.935 176.075 565.444 175.968C564.964 175.861 564.543 175.696 564.18 175.472L564.788 174.224C565.087 174.416 565.418 174.555 565.78 174.64C566.154 174.715 566.543 174.752 566.948 174.752C568.079 174.752 568.98 174.4 569.652 173.696C570.324 172.981 570.66 171.925 570.66 170.528C570.66 170.304 570.65 170.037 570.628 169.728C570.607 169.419 570.559 169.115 570.484 168.816L571.012 169.36C570.863 169.851 570.612 170.267 570.26 170.608C569.919 170.939 569.503 171.189 569.012 171.36C568.532 171.52 568.004 171.6 567.428 171.6C566.692 171.6 566.036 171.461 565.46 171.184C564.884 170.907 564.431 170.517 564.1 170.016C563.77 169.504 563.604 168.901 563.604 168.208C563.604 167.483 563.775 166.859 564.116 166.336C564.468 165.803 564.943 165.392 565.54 165.104C566.148 164.816 566.82 164.672 567.556 164.672ZM567.62 165.968C567.14 165.968 566.714 166.059 566.34 166.24C565.967 166.421 565.674 166.672 565.46 166.992C565.258 167.312 565.156 167.696 565.156 168.144C565.156 168.805 565.386 169.333 565.844 169.728C566.303 170.112 566.922 170.304 567.7 170.304C568.212 170.304 568.66 170.208 569.044 170.016C569.439 169.824 569.743 169.563 569.956 169.232C570.18 168.901 570.292 168.533 570.292 168.128C570.292 167.733 570.191 167.376 569.988 167.056C569.786 166.736 569.487 166.475 569.092 166.272C568.698 166.069 568.207 165.968 567.62 165.968ZM578.375 176.128C577.501 176.128 576.717 175.904 576.023 175.456C575.341 175.008 574.797 174.357 574.391 173.504C573.997 172.651 573.799 171.616 573.799 170.4C573.799 169.184 573.997 168.149 574.391 167.296C574.797 166.443 575.341 165.792 576.023 165.344C576.717 164.896 577.501 164.672 578.375 164.672C579.239 164.672 580.018 164.896 580.711 165.344C581.405 165.792 581.949 166.443 582.343 167.296C582.738 168.149 582.935 169.184 582.935 170.4C582.935 171.616 582.738 172.651 582.343 173.504C581.949 174.357 581.405 175.008 580.711 175.456C580.018 175.904 579.239 176.128 578.375 176.128ZM578.375 174.704C578.962 174.704 579.474 174.544 579.911 174.224C580.359 173.904 580.706 173.424 580.951 172.784C581.207 172.144 581.335 171.349 581.335 170.4C581.335 169.451 581.207 168.656 580.951 168.016C580.706 167.376 580.359 166.896 579.911 166.576C579.474 166.256 578.962 166.096 578.375 166.096C577.789 166.096 577.271 166.256 576.823 166.576C576.375 166.896 576.023 167.376 575.767 168.016C575.522 168.656 575.399 169.451 575.399 170.4C575.399 171.349 575.522 172.144 575.767 172.784C576.023 173.424 576.375 173.904 576.823 174.224C577.271 174.544 577.789 174.704 578.375 174.704ZM584.364 178.368L585.164 175.136L585.372 176.064C585.062 176.064 584.801 175.968 584.588 175.776C584.385 175.584 584.284 175.323 584.284 174.992C584.284 174.672 584.385 174.411 584.588 174.208C584.801 174.005 585.057 173.904 585.356 173.904C585.665 173.904 585.916 174.011 586.108 174.224C586.3 174.427 586.396 174.683 586.396 174.992C586.396 175.099 586.385 175.205 586.364 175.312C586.353 175.408 586.326 175.525 586.284 175.664C586.252 175.792 586.198 175.952 586.124 176.144L585.372 178.368H584.364ZM587.608 173.248V172.128L593.336 164.8H595.064L589.384 172.128L588.568 171.872H597.512V173.248H587.608ZM593.832 176V173.248L593.88 171.872V169.44H595.384V176H593.832ZM603.175 176.128C602.183 176.128 601.335 175.909 600.631 175.472C599.927 175.035 599.388 174.405 599.015 173.584C598.652 172.752 598.471 171.739 598.471 170.544C598.471 169.275 598.695 168.203 599.143 167.328C599.591 166.453 600.215 165.792 601.015 165.344C601.815 164.896 602.732 164.672 603.767 164.672C604.3 164.672 604.807 164.725 605.287 164.832C605.778 164.939 606.199 165.104 606.551 165.328L605.943 166.576C605.655 166.373 605.324 166.235 604.951 166.16C604.588 166.085 604.204 166.048 603.799 166.048C602.658 166.048 601.751 166.405 601.079 167.12C600.407 167.824 600.071 168.875 600.071 170.272C600.071 170.496 600.082 170.763 600.103 171.072C600.124 171.381 600.178 171.685 600.263 171.984L599.719 171.44C599.879 170.949 600.13 170.539 600.471 170.208C600.823 169.867 601.239 169.616 601.719 169.456C602.21 169.285 602.738 169.2 603.303 169.2C604.05 169.2 604.711 169.339 605.287 169.616C605.863 169.893 606.316 170.288 606.647 170.8C606.978 171.301 607.143 171.899 607.143 172.592C607.143 173.307 606.967 173.931 606.615 174.464C606.263 174.997 605.788 175.408 605.191 175.696C604.594 175.984 603.922 176.128 603.175 176.128ZM603.111 174.832C603.602 174.832 604.028 174.741 604.391 174.56C604.764 174.379 605.058 174.128 605.271 173.808C605.484 173.477 605.591 173.093 605.591 172.656C605.591 171.995 605.362 171.472 604.903 171.088C604.444 170.693 603.82 170.496 603.031 170.496C602.519 170.496 602.071 170.592 601.687 170.784C601.303 170.976 600.999 171.237 600.775 171.568C600.562 171.888 600.455 172.256 600.455 172.672C600.455 173.056 600.556 173.413 600.759 173.744C600.962 174.064 601.26 174.325 601.655 174.528C602.05 174.731 602.535 174.832 603.111 174.832Z" fill="#666666"/>
<mask id="path-16-outside-4_2_118" maskUnits="userSpaceOnUse" x="0" y="194" width="648" height="49" fill="black">
<rect fill="white" y="194" width="648" height="49"/>
<path d="M0 194H648V242H0V194Z"/>
</mask>
<path d="M648 241H0V243H648V241Z" fill="#999999" mask="url(#path-16-outside-4_2_118)"/>
<path d="M41.68 224V212.8H46.4C47.5947 212.8 48.6453 213.035 49.552 213.504C50.4693 213.973 51.1787 214.629 51.68 215.472C52.192 216.315 52.448 217.291 52.448 218.4C52.448 219.509 52.192 220.485 51.68 221.328C51.1787 222.171 50.4693 222.827 49.552 223.296C48.6453 223.765 47.5947 224 46.4 224H41.68ZM43.28 222.608H46.304C47.232 222.608 48.032 222.432 48.704 222.08C49.3867 221.728 49.9147 221.237 50.288 220.608C50.6613 219.968 50.848 219.232 50.848 218.4C50.848 217.557 50.6613 216.821 50.288 216.192C49.9147 215.563 49.3867 215.072 48.704 214.72C48.032 214.368 47.232 214.192 46.304 214.192H43.28V222.608Z" fill="#666666"/>
<path d="M284.156 224V213.44L284.844 214.192H281.628V212.8H285.74V224H284.156ZM291.806 224.128C291.017 224.128 290.249 224.005 289.502 223.76C288.766 223.515 288.163 223.184 287.694 222.768L288.43 221.504C288.803 221.856 289.289 222.144 289.886 222.368C290.483 222.592 291.118 222.704 291.79 222.704C292.643 222.704 293.299 222.523 293.758 222.16C294.217 221.797 294.446 221.312 294.446 220.704C294.446 220.288 294.345 219.925 294.142 219.616C293.939 219.307 293.587 219.072 293.086 218.912C292.595 218.741 291.918 218.656 291.054 218.656H288.51L289.102 212.8H295.422V214.192H289.694L290.526 213.408L290.062 218.032L289.23 217.264H291.39C292.51 217.264 293.411 217.408 294.094 217.696C294.777 217.984 295.273 218.384 295.582 218.896C295.891 219.397 296.046 219.979 296.046 220.64C296.046 221.28 295.891 221.867 295.582 222.4C295.273 222.923 294.803 223.344 294.174 223.664C293.555 223.973 292.766 224.128 291.806 224.128ZM299.265 224V213.44L299.953 214.192H296.737V212.8H300.849V224H299.265ZM303.379 226.368L304.179 223.136L304.387 224.064C304.078 224.064 303.817 223.968 303.603 223.776C303.401 223.584 303.299 223.323 303.299 222.992C303.299 222.672 303.401 222.411 303.603 222.208C303.817 222.005 304.073 221.904 304.371 221.904C304.681 221.904 304.931 222.011 305.123 222.224C305.315 222.427 305.411 222.683 305.411 222.992C305.411 223.099 305.401 223.205 305.379 223.312C305.369 223.408 305.342 223.525 305.299 223.664C305.267 223.792 305.214 223.952 305.139 224.144L304.387 226.368H303.379ZM308.657 224L313.409 213.472L313.825 214.192H307.169L307.969 213.408V216.192H306.433V212.8H314.881V213.888L310.353 224H308.657ZM320.37 224.128C319.464 224.128 318.68 223.995 318.018 223.728C317.357 223.461 316.845 223.083 316.482 222.592C316.12 222.091 315.938 221.504 315.938 220.832C315.938 220.171 316.109 219.611 316.45 219.152C316.802 218.683 317.309 218.331 317.97 218.096C318.632 217.851 319.432 217.728 320.37 217.728C321.309 217.728 322.109 217.851 322.77 218.096C323.442 218.331 323.954 218.683 324.306 219.152C324.658 219.621 324.834 220.181 324.834 220.832C324.834 221.504 324.653 222.091 324.29 222.592C323.928 223.083 323.41 223.461 322.738 223.728C322.066 223.995 321.277 224.128 320.37 224.128ZM320.37 222.832C321.266 222.832 321.965 222.651 322.466 222.288C322.978 221.915 323.234 221.413 323.234 220.784C323.234 220.165 322.978 219.68 322.466 219.328C321.965 218.965 321.266 218.784 320.37 218.784C319.485 218.784 318.792 218.965 318.29 219.328C317.789 219.68 317.538 220.165 317.538 220.784C317.538 221.413 317.789 221.915 318.29 222.288C318.792 222.651 319.485 222.832 320.37 222.832ZM320.37 218.592C319.517 218.592 318.792 218.48 318.194 218.256C317.597 218.021 317.138 217.691 316.818 217.264C316.498 216.827 316.338 216.309 316.338 215.712C316.338 215.083 316.504 214.544 316.834 214.096C317.176 213.637 317.65 213.285 318.258 213.04C318.866 212.795 319.57 212.672 320.37 212.672C321.181 212.672 321.89 212.795 322.498 213.04C323.106 213.285 323.581 213.637 323.922 214.096C324.264 214.544 324.434 215.083 324.434 215.712C324.434 216.309 324.274 216.827 323.954 217.264C323.634 217.691 323.17 218.021 322.562 218.256C321.954 218.48 321.224 218.592 320.37 218.592ZM320.37 217.568C321.149 217.568 321.757 217.408 322.194 217.088C322.642 216.768 322.866 216.331 322.866 215.776C322.866 215.211 322.637 214.768 322.178 214.448C321.72 214.128 321.117 213.968 320.37 213.968C319.624 213.968 319.026 214.128 318.578 214.448C318.141 214.768 317.922 215.211 317.922 215.776C317.922 216.331 318.136 216.768 318.562 217.088C319 217.408 319.602 217.568 320.37 217.568Z" fill="#666666"/>
<path d="M558.192 224.128C557.403 224.128 556.635 224.005 555.888 223.76C555.152 223.515 554.549 223.184 554.08 222.768L554.816 221.504C555.189 221.856 555.675 222.144 556.272 222.368C556.869 222.592 557.509 222.704 558.192 222.704C559.024 222.704 559.669 222.528 560.128 222.176C560.597 221.813 560.832 221.328 560.832 220.72C560.832 220.133 560.608 219.664 560.16 219.312C559.723 218.949 559.024 218.768 558.064 218.768H557.168V217.648L560.496 213.552L560.72 214.192H554.592V212.8H561.984V213.888L558.672 217.968L557.84 217.472H558.368C559.723 217.472 560.736 217.776 561.408 218.384C562.091 218.992 562.432 219.765 562.432 220.704C562.432 221.333 562.277 221.909 561.968 222.432C561.659 222.955 561.189 223.371 560.56 223.68C559.941 223.979 559.152 224.128 558.192 224.128ZM567.556 212.672C568.57 212.672 569.423 212.891 570.116 213.328C570.82 213.765 571.354 214.4 571.716 215.232C572.079 216.053 572.26 217.061 572.26 218.256C572.26 219.525 572.036 220.597 571.588 221.472C571.14 222.347 570.522 223.008 569.732 223.456C568.943 223.904 568.02 224.128 566.964 224.128C566.442 224.128 565.935 224.075 565.444 223.968C564.964 223.861 564.543 223.696 564.18 223.472L564.788 222.224C565.087 222.416 565.418 222.555 565.78 222.64C566.154 222.715 566.543 222.752 566.948 222.752C568.079 222.752 568.98 222.4 569.652 221.696C570.324 220.981 570.66 219.925 570.66 218.528C570.66 218.304 570.65 218.037 570.628 217.728C570.607 217.419 570.559 217.115 570.484 216.816L571.012 217.36C570.863 217.851 570.612 218.267 570.26 218.608C569.919 218.939 569.503 219.189 569.012 219.36C568.532 219.52 568.004 219.6 567.428 219.6C566.692 219.6 566.036 219.461 565.46 219.184C564.884 218.907 564.431 218.517 564.1 218.016C563.77 217.504 563.604 216.901 563.604 216.208C563.604 215.483 563.775 214.859 564.116 214.336C564.468 213.803 564.943 213.392 565.54 213.104C566.148 212.816 566.82 212.672 567.556 212.672ZM567.62 213.968C567.14 213.968 566.714 214.059 566.34 214.24C565.967 214.421 565.674 214.672 565.46 214.992C565.258 215.312 565.156 215.696 565.156 216.144C565.156 216.805 565.386 217.333 565.844 217.728C566.303 218.112 566.922 218.304 567.7 218.304C568.212 218.304 568.66 218.208 569.044 218.016C569.439 217.824 569.743 217.563 569.956 217.232C570.18 216.901 570.292 216.533 570.292 216.128C570.292 215.733 570.191 215.376 569.988 215.056C569.786 214.736 569.487 214.475 569.092 214.272C568.698 214.069 568.207 213.968 567.62 213.968ZM578.375 224.128C577.501 224.128 576.717 223.904 576.023 223.456C575.341 223.008 574.797 222.357 574.391 221.504C573.997 220.651 573.799 219.616 573.799 218.4C573.799 217.184 573.997 216.149 574.391 215.296C574.797 214.443 575.341 213.792 576.023 213.344C576.717 212.896 577.501 212.672 578.375 212.672C579.239 212.672 580.018 212.896 580.711 213.344C581.405 213.792 581.949 214.443 582.343 215.296C582.738 216.149 582.935 217.184 582.935 218.4C582.935 219.616 582.738 220.651 582.343 221.504C581.949 222.357 581.405 223.008 580.711 223.456C580.018 223.904 579.239 224.128 578.375 224.128ZM578.375 222.704C578.962 222.704 579.474 222.544 579.911 222.224C580.359 221.904 580.706 221.424 580.951 220.784C581.207 220.144 581.335 219.349 581.335 218.4C581.335 217.451 581.207 216.656 580.951 216.016C580.706 215.376 580.359 214.896 579.911 214.576C579.474 214.256 578.962 214.096 578.375 214.096C577.789 214.096 577.271 214.256 576.823 214.576C576.375 214.896 576.023 215.376 575.767 216.016C575.522 216.656 575.399 217.451 575.399 218.4C575.399 219.349 575.522 220.144 575.767 220.784C576.023 221.424 576.375 221.904 576.823 222.224C577.271 222.544 577.789 222.704 578.375 222.704ZM584.364 226.368L585.164 223.136L585.372 224.064C585.062 224.064 584.801 223.968 584.588 223.776C584.385 223.584 584.284 223.323 584.284 222.992C584.284 222.672 584.385 222.411 584.588 222.208C584.801 222.005 585.057 221.904 585.356 221.904C585.665 221.904 585.916 222.011 586.108 222.224C586.3 222.427 586.396 222.683 586.396 222.992C586.396 223.099 586.385 223.205 586.364 223.312C586.353 223.408 586.326 223.525 586.284 223.664C586.252 223.792 586.198 223.952 586.124 224.144L585.372 226.368H584.364ZM587.608 221.248V220.128L593.336 212.8H595.064L589.384 220.128L588.568 219.872H597.512V221.248H587.608ZM593.832 224V221.248L593.88 219.872V217.44H595.384V224H593.832ZM603.175 224.128C602.183 224.128 601.335 223.909 600.631 223.472C599.927 223.035 599.388 222.405 599.015 221.584C598.652 220.752 598.471 219.739 598.471 218.544C598.471 217.275 598.695 216.203 599.143 215.328C599.591 214.453 600.215 213.792 601.015 213.344C601.815 212.896 602.732 212.672 603.767 212.672C604.3 212.672 604.807 212.725 605.287 212.832C605.778 212.939 606.199 213.104 606.551 213.328L605.943 214.576C605.655 214.373 605.324 214.235 604.951 214.16C604.588 214.085 604.204 214.048 603.799 214.048C602.658 214.048 601.751 214.405 601.079 215.12C600.407 215.824 600.071 216.875 600.071 218.272C600.071 218.496 600.082 218.763 600.103 219.072C600.124 219.381 600.178 219.685 600.263 219.984L599.719 219.44C599.879 218.949 600.13 218.539 600.471 218.208C600.823 217.867 601.239 217.616 601.719 217.456C602.21 217.285 602.738 217.2 603.303 217.2C604.05 217.2 604.711 217.339 605.287 217.616C605.863 217.893 606.316 218.288 606.647 218.8C606.978 219.301 607.143 219.899 607.143 220.592C607.143 221.307 606.967 221.931 606.615 222.464C606.263 222.997 605.788 223.408 605.191 223.696C604.594 223.984 603.922 224.128 603.175 224.128ZM603.111 222.832C603.602 222.832 604.028 222.741 604.391 222.56C604.764 222.379 605.058 222.128 605.271 221.808C605.484 221.477 605.591 221.093 605.591 220.656C605.591 219.995 605.362 219.472 604.903 219.088C604.444 218.693 603.82 218.496 603.031 218.496C602.519 218.496 602.071 218.592 601.687 218.784C601.303 218.976 600.999 219.237 600.775 219.568C600.562 219.888 600.455 220.256 600.455 220.672C600.455 221.056 600.556 221.413 600.759 221.744C600.962 222.064 601.26 222.325 601.655 222.528C602.05 222.731 602.535 222.832 603.111 222.832Z" fill="#666666"/>
</svg>
