<svg width="144" height="42" viewBox="0 0 144 42" fill="none" xmlns="http://www.w3.org/2000/svg">
<rect x="1" y="1" width="142" height="40" rx="11" fill="#F79090"/>
<rect x="1" y="1" width="142" height="40" rx="11" stroke="#F17965" stroke-width="2"/>
<path d="M17.076 26V15.0909H19.0522V24.3434H23.8569V26H17.076ZM28.359 26.1598C27.5387 26.1598 26.8303 25.9893 26.2337 25.6484C25.6406 25.304 25.1843 24.8175 24.8647 24.1889C24.5451 23.5568 24.3853 22.8129 24.3853 21.957C24.3853 21.1154 24.5451 20.3768 24.8647 19.7411C25.1879 19.1019 25.6388 18.6048 26.2177 18.2496C26.7965 17.891 27.4766 17.7116 28.2578 17.7116C28.7621 17.7116 29.2379 17.7933 29.6854 17.9567C30.1364 18.1165 30.5341 18.3651 30.8786 18.7024C31.2266 19.0398 31.5 19.4695 31.6989 19.9915C31.8977 20.5099 31.9972 21.1278 31.9972 21.8452V22.4364H25.2908V21.1367H30.1488C30.1452 20.7674 30.0653 20.4389 29.9091 20.1513C29.7528 19.8601 29.5344 19.631 29.2539 19.4641C28.9769 19.2972 28.6538 19.2138 28.2844 19.2138C27.8903 19.2138 27.544 19.3097 27.2457 19.5014C26.9474 19.6896 26.7148 19.9382 26.5479 20.2472C26.3846 20.5526 26.3011 20.8881 26.2976 21.2539V22.3885C26.2976 22.8643 26.3846 23.2727 26.5586 23.6136C26.7326 23.951 26.9759 24.2102 27.2884 24.3913C27.6009 24.5689 27.9666 24.6577 28.3857 24.6577C28.6662 24.6577 28.9201 24.6186 29.1474 24.5405C29.3746 24.4588 29.5717 24.3398 29.7386 24.1836C29.9055 24.0273 30.0316 23.8338 30.1168 23.603L31.9173 23.8054C31.8036 24.2812 31.587 24.6967 31.2674 25.0518C30.9513 25.4034 30.5465 25.6768 30.0529 25.8722C29.5593 26.0639 28.9947 26.1598 28.359 26.1598ZM35.2329 26.1651C34.7144 26.1651 34.2474 26.0728 33.8319 25.8881C33.42 25.6999 33.0933 25.4229 32.8518 25.0572C32.6139 24.6914 32.4949 24.2404 32.4949 23.7042C32.4949 23.2425 32.5802 22.8608 32.7506 22.5589C32.9211 22.2571 33.1537 22.0156 33.4484 21.8345C33.7432 21.6534 34.0752 21.5167 34.4445 21.4244C34.8174 21.3285 35.2027 21.2592 35.6004 21.2166C36.0798 21.1669 36.4687 21.1225 36.767 21.0835C37.0653 21.0408 37.2819 20.9769 37.4168 20.8917C37.5553 20.8029 37.6246 20.6662 37.6246 20.4815V20.4496C37.6246 20.0483 37.5056 19.7376 37.2677 19.5174C37.0297 19.2972 36.6871 19.1871 36.2396 19.1871C35.7673 19.1871 35.3927 19.2901 35.1157 19.4961C34.8422 19.7021 34.6576 19.9453 34.5617 20.2259L32.7613 19.9702C32.9033 19.473 33.1377 19.0575 33.4644 18.7237C33.7911 18.3864 34.1906 18.1342 34.6629 17.9673C35.1352 17.7969 35.6572 17.7116 36.229 17.7116C36.6231 17.7116 37.0155 17.7578 37.4062 17.8501C37.7968 17.9425 38.1537 18.0952 38.4768 18.3082C38.8 18.5178 39.0592 18.8036 39.2545 19.1658C39.4534 19.5281 39.5528 19.9808 39.5528 20.5241V26H37.6991V24.8761H37.6352C37.518 25.1033 37.3529 25.3164 37.1398 25.5153C36.9303 25.7106 36.6657 25.8686 36.3461 25.9893C36.0301 26.1065 35.659 26.1651 35.2329 26.1651ZM35.7336 24.7482C36.1206 24.7482 36.4562 24.6719 36.7403 24.5192C37.0244 24.3629 37.2428 24.157 37.3955 23.9013C37.5518 23.6456 37.6299 23.3668 37.6299 23.065V22.1009C37.5695 22.1506 37.4665 22.1967 37.3209 22.2393C37.1789 22.282 37.0191 22.3192 36.8415 22.3512C36.664 22.3832 36.4882 22.4116 36.3142 22.4364C36.1402 22.4613 35.9893 22.4826 35.8614 22.5004C35.5738 22.5394 35.3163 22.6033 35.089 22.6921C34.8618 22.7809 34.6824 22.9052 34.551 23.065C34.4197 23.2212 34.354 23.4237 34.354 23.6722C34.354 24.0273 34.4836 24.2955 34.7428 24.4766C35.002 24.6577 35.3323 24.7482 35.7336 24.7482ZM40.7417 26V17.8182H42.6114V19.1818H42.6966C42.8458 18.7095 43.1015 18.3455 43.4637 18.0898C43.8295 17.8306 44.2467 17.701 44.7155 17.701C44.822 17.701 44.941 17.7063 45.0724 17.717C45.2073 17.7241 45.3192 17.7365 45.4079 17.7543V19.5281C45.3263 19.4996 45.1966 19.4748 45.0191 19.4535C44.8451 19.4286 44.6764 19.4162 44.5131 19.4162C44.1615 19.4162 43.8454 19.4925 43.5649 19.6452C43.2879 19.7944 43.0695 20.0021 42.9097 20.2685C42.7499 20.5348 42.67 20.842 42.67 21.19V26H40.7417ZM47.8673 21.206V26H45.939V17.8182H47.782V19.2085H47.8779C48.0661 18.7504 48.3662 18.3864 48.7781 18.1165C49.1936 17.8466 49.7068 17.7116 50.3176 17.7116C50.8822 17.7116 51.374 17.8324 51.7931 18.0739C52.2156 18.3153 52.5423 18.6651 52.7732 19.1232C53.0075 19.5813 53.123 20.1371 53.1194 20.7905V26H51.1911V21.0888C51.1911 20.5419 51.0491 20.114 50.765 19.805C50.4845 19.4961 50.0956 19.3416 49.5985 19.3416C49.2611 19.3416 48.961 19.4162 48.6982 19.5653C48.439 19.7109 48.2348 19.9222 48.0857 20.1992C47.9401 20.4762 47.8673 20.8118 47.8673 21.206ZM57.3003 26V17.8182H59.1434V19.2085H59.2393C59.4097 18.7397 59.692 18.3739 60.0862 18.1112C60.4804 17.8448 60.9509 17.7116 61.4978 17.7116C62.0518 17.7116 62.5187 17.8466 62.8987 18.1165C63.2822 18.3828 63.5521 18.7468 63.7084 19.2085H63.7936C63.9747 18.7539 64.2801 18.3917 64.7098 18.1218C65.143 17.8484 65.6562 17.7116 66.2492 17.7116C67.002 17.7116 67.6164 17.9496 68.0922 18.4254C68.5681 18.9013 68.806 19.5955 68.806 20.5082V26H66.8724V20.8065C66.8724 20.2987 66.7375 19.9276 66.4676 19.6932C66.1977 19.4553 65.8675 19.3363 65.4768 19.3363C65.0116 19.3363 64.6476 19.4819 64.3849 19.7731C64.1256 20.0607 63.996 20.4354 63.996 20.897V26H62.105V20.7266C62.105 20.304 61.9772 19.9666 61.7215 19.7145C61.4694 19.4624 61.1391 19.3363 60.7307 19.3363C60.4537 19.3363 60.2016 19.4073 59.9743 19.5494C59.7471 19.6879 59.566 19.8849 59.431 20.1406C59.2961 20.3928 59.2286 20.6875 59.2286 21.0249V26H57.3003ZM73.5811 26.1598C72.7821 26.1598 72.0897 25.984 71.5037 25.6325C70.9178 25.2809 70.4632 24.7891 70.1401 24.157C69.8205 23.5249 69.6607 22.7862 69.6607 21.9411C69.6607 21.0959 69.8205 20.3555 70.1401 19.7198C70.4632 19.0842 70.9178 18.5906 71.5037 18.239C72.0897 17.8874 72.7821 17.7116 73.5811 17.7116C74.3801 17.7116 75.0726 17.8874 75.6586 18.239C76.2445 18.5906 76.6973 19.0842 77.0169 19.7198C77.34 20.3555 77.5016 21.0959 77.5016 21.9411C77.5016 22.7862 77.34 23.5249 77.0169 24.157C76.6973 24.7891 76.2445 25.2809 75.6586 25.6325C75.0726 25.984 74.3801 26.1598 73.5811 26.1598ZM73.5918 24.6151C74.025 24.6151 74.3873 24.4961 74.6784 24.2582C74.9696 24.0167 75.1863 23.6935 75.3283 23.2887C75.4739 22.8839 75.5467 22.4329 75.5467 21.9357C75.5467 21.435 75.4739 20.9822 75.3283 20.5774C75.1863 20.169 74.9696 19.8441 74.6784 19.6026C74.3873 19.3612 74.025 19.2404 73.5918 19.2404C73.1479 19.2404 72.7786 19.3612 72.4838 19.6026C72.1926 19.8441 71.9743 20.169 71.8287 20.5774C71.6866 20.9822 71.6156 21.435 71.6156 21.9357C71.6156 22.4329 71.6866 22.8839 71.8287 23.2887C71.9743 23.6935 72.1926 24.0167 72.4838 24.2582C72.7786 24.4961 73.1479 24.6151 73.5918 24.6151ZM78.3882 26V17.8182H80.2579V19.1818H80.3431C80.4923 18.7095 80.748 18.3455 81.1102 18.0898C81.4759 17.8306 81.8932 17.701 82.3619 17.701C82.4685 17.701 82.5874 17.7063 82.7188 17.717C82.8538 17.7241 82.9656 17.7365 83.0544 17.7543V19.5281C82.9727 19.4996 82.8431 19.4748 82.6656 19.4535C82.4916 19.4286 82.3229 19.4162 82.1595 19.4162C81.808 19.4162 81.4919 19.4925 81.2114 19.6452C80.9344 19.7944 80.716 20.0021 80.5562 20.2685C80.3964 20.5348 80.3165 20.842 80.3165 21.19V26H78.3882ZM86.8707 26.1598C86.0504 26.1598 85.342 25.9893 84.7454 25.6484C84.1523 25.304 83.696 24.8175 83.3764 24.1889C83.0568 23.5568 82.897 22.8129 82.897 21.957C82.897 21.1154 83.0568 20.3768 83.3764 19.7411C83.6996 19.1019 84.1506 18.6048 84.7294 18.2496C85.3082 17.891 85.9883 17.7116 86.7695 17.7116C87.2738 17.7116 87.7496 17.7933 88.1971 17.9567C88.6481 18.1165 89.0458 18.3651 89.3903 18.7024C89.7383 19.0398 90.0117 19.4695 90.2106 19.9915C90.4094 20.5099 90.5089 21.1278 90.5089 21.8452V22.4364H83.8026V21.1367H88.6605C88.657 20.7674 88.5771 20.4389 88.4208 20.1513C88.2646 19.8601 88.0462 19.631 87.7656 19.4641C87.4886 19.2972 87.1655 19.2138 86.7962 19.2138C86.402 19.2138 86.0558 19.3097 85.7575 19.5014C85.4592 19.6896 85.2266 19.9382 85.0597 20.2472C84.8963 20.5526 84.8129 20.8881 84.8093 21.2539V22.3885C84.8093 22.8643 84.8963 23.2727 85.0703 23.6136C85.2443 23.951 85.4876 24.2102 85.8001 24.3913C86.1126 24.5689 86.4783 24.6577 86.8974 24.6577C87.1779 24.6577 87.4318 24.6186 87.6591 24.5405C87.8864 24.4588 88.0835 24.3398 88.2504 24.1836C88.4173 24.0273 88.5433 23.8338 88.6286 23.603L90.429 23.8054C90.3153 24.2812 90.0987 24.6967 89.7791 25.0518C89.4631 25.4034 89.0582 25.6768 88.5646 25.8722C88.071 26.0639 87.5064 26.1598 86.8707 26.1598ZM96.2892 21.206V26H94.3609V15.0909H96.2465V19.2085H96.3424C96.5342 18.7468 96.8307 18.3828 97.232 18.1165C97.6368 17.8466 98.1517 17.7116 98.7767 17.7116C99.3449 17.7116 99.8403 17.8306 100.263 18.0685C100.685 18.3065 101.012 18.6545 101.243 19.1126C101.477 19.5707 101.595 20.13 101.595 20.7905V26H99.6663V21.0888C99.6663 20.5384 99.5242 20.1104 99.2401 19.805C98.9596 19.4961 98.5654 19.3416 98.0576 19.3416C97.7167 19.3416 97.4113 19.4162 97.1414 19.5653C96.8751 19.7109 96.6656 19.9222 96.5129 20.1992C96.3637 20.4762 96.2892 20.8118 96.2892 21.206ZM106.432 26.1598C105.612 26.1598 104.903 25.9893 104.307 25.6484C103.714 25.304 103.258 24.8175 102.938 24.1889C102.618 23.5568 102.459 22.8129 102.459 21.957C102.459 21.1154 102.618 20.3768 102.938 19.7411C103.261 19.1019 103.712 18.6048 104.291 18.2496C104.87 17.891 105.55 17.7116 106.331 17.7116C106.835 17.7116 107.311 17.7933 107.759 17.9567C108.21 18.1165 108.607 18.3651 108.952 18.7024C109.3 19.0398 109.573 19.4695 109.772 19.9915C109.971 20.5099 110.07 21.1278 110.07 21.8452V22.4364H103.364V21.1367H108.222C108.218 20.7674 108.139 20.4389 107.982 20.1513C107.826 19.8601 107.608 19.631 107.327 19.4641C107.05 19.2972 106.727 19.2138 106.358 19.2138C105.964 19.2138 105.617 19.3097 105.319 19.5014C105.021 19.6896 104.788 19.9382 104.621 20.2472C104.458 20.5526 104.374 20.8881 104.371 21.2539V22.3885C104.371 22.8643 104.458 23.2727 104.632 23.6136C104.806 23.951 105.049 24.2102 105.362 24.3913C105.674 24.5689 106.04 24.6577 106.459 24.6577C106.739 24.6577 106.993 24.6186 107.221 24.5405C107.448 24.4588 107.645 24.3398 107.812 24.1836C107.979 24.0273 108.105 23.8338 108.19 23.603L109.991 23.8054C109.877 24.2812 109.66 24.6967 109.341 25.0518C109.025 25.4034 108.62 25.6768 108.126 25.8722C107.633 26.0639 107.068 26.1598 106.432 26.1598ZM110.952 26V17.8182H112.821V19.1818H112.907C113.056 18.7095 113.311 18.3455 113.674 18.0898C114.039 17.8306 114.457 17.701 114.925 17.701C115.032 17.701 115.151 17.7063 115.282 17.717C115.417 17.7241 115.529 17.7365 115.618 17.7543V19.5281C115.536 19.4996 115.407 19.4748 115.229 19.4535C115.055 19.4286 114.886 19.4162 114.723 19.4162C114.371 19.4162 114.055 19.4925 113.775 19.6452C113.498 19.7944 113.279 20.0021 113.12 20.2685C112.96 20.5348 112.88 20.842 112.88 21.19V26H110.952ZM119.434 26.1598C118.614 26.1598 117.905 25.9893 117.309 25.6484C116.716 25.304 116.259 24.8175 115.94 24.1889C115.62 23.5568 115.46 22.8129 115.46 21.957C115.46 21.1154 115.62 20.3768 115.94 19.7411C116.263 19.1019 116.714 18.6048 117.293 18.2496C117.872 17.891 118.552 17.7116 119.333 17.7116C119.837 17.7116 120.313 17.7933 120.761 17.9567C121.212 18.1165 121.609 18.3651 121.954 18.7024C122.302 19.0398 122.575 19.4695 122.774 19.9915C122.973 20.5099 123.072 21.1278 123.072 21.8452V22.4364H116.366V21.1367H121.224C121.22 20.7674 121.141 20.4389 120.984 20.1513C120.828 19.8601 120.61 19.631 120.329 19.4641C120.052 19.2972 119.729 19.2138 119.36 19.2138C118.965 19.2138 118.619 19.3097 118.321 19.5014C118.023 19.6896 117.79 19.9382 117.623 20.2472C117.46 20.5526 117.376 20.8881 117.373 21.2539V22.3885C117.373 22.8643 117.46 23.2727 117.634 23.6136C117.808 23.951 118.051 24.2102 118.364 24.3913C118.676 24.5689 119.042 24.6577 119.461 24.6577C119.741 24.6577 119.995 24.6186 120.223 24.5405C120.45 24.4588 120.647 24.3398 120.814 24.1836C120.981 24.0273 121.107 23.8338 121.192 23.603L122.992 23.8054C122.879 24.2812 122.662 24.6967 122.343 25.0518C122.027 25.4034 121.622 25.6768 121.128 25.8722C120.634 26.0639 120.07 26.1598 119.434 26.1598ZM126.313 15.0909L126.138 22.7933H124.422L124.252 15.0909H126.313ZM125.28 26.1172C124.957 26.1172 124.68 26.0036 124.449 25.7763C124.222 25.549 124.108 25.272 124.108 24.9453C124.108 24.6257 124.222 24.3523 124.449 24.125C124.68 23.8977 124.957 23.7841 125.28 23.7841C125.596 23.7841 125.869 23.8977 126.1 24.125C126.335 24.3523 126.452 24.6257 126.452 24.9453C126.452 25.1619 126.397 25.359 126.287 25.5366C126.18 25.7141 126.038 25.8562 125.861 25.9627C125.687 26.0657 125.493 26.1172 125.28 26.1172Z" fill="white"/>
</svg>
